<?xml version="1.0" encoding="UTF-8" standalone="no"?>
<svg width="140px" height="140px" viewBox="0 0 140 140" version="1.1" xmlns="http://www.w3.org/2000/svg" xmlns:xlink="http://www.w3.org/1999/xlink" xmlns:sketch="http://www.bohemiancoding.com/sketch/ns">
    <!-- Generator: Sketch 3.3.2 (12043) - http://www.bohemiancoding.com/sketch -->
    <title>agile</title>
    <desc>Created with Sketch.</desc>
    <defs></defs>
    <g id="Page-1" stroke="none" stroke-width="1" fill="none" fill-rule="evenodd" sketch:type="MSPage">
        <g id="Artboard" sketch:type="MSArtboardGroup" transform="translate(-284.000000, -146.000000)">
            <g id="agile" sketch:type="MSLayerGroup" transform="translate(284.000000, 146.000000)">
                <g id="Group" transform="translate(31.000000, 25.000000)" sketch:type="MSShapeGroup">
                    <path d="M22.6378777,79.1327911 L23.0190774,78.8267774 L3.12585006,53.70452 L10.1733315,22.6079576 L38.7083842,8.7686078 L67.2434369,22.6079576 L74.2905934,53.70452 L54.5439313,78.6418599 L22.6378777,78.6418599 L22.6378777,79.1327911 L23.0190774,78.8267774 L22.6378777,79.1327911 L22.6378777,79.6237223 L54.7788907,79.6237223 C54.9267559,79.6237223 55.0674715,79.5556465 55.1597654,79.4391322 L75.1992329,54.1319574 C75.2915268,54.0151158 75.3262995,53.861618 75.2934767,53.7163024 L68.1413522,22.1589192 C68.1085294,22.0136036 68.0110359,21.8902162 67.8777947,21.8257406 L38.9199451,7.78118156 C38.786379,7.71670593 38.6300644,7.71670593 38.4968233,7.78118156 L9.53897366,21.8257406 C9.40573251,21.8905435 9.308239,22.0136036 9.27541618,22.1589192 L2.12329172,53.7163024 C2.0904689,53.861618 2.12524159,54.0151158 2.21753545,54.1319574 L22.257003,79.4391322 C22.3489719,79.5556465 22.4900125,79.6237223 22.6378777,79.6237223 L22.6378777,79.1327911" id="Fill-1" fill="#274970"></path>
                    <path d="M38.2231915,8.27276731 L42.440761,50.4787749 C42.4677342,50.7484598 42.7069183,50.9451595 42.9747005,50.9179947 C43.2424827,50.8908298 43.4377947,50.6502735 43.4108215,50.3805887 L39.193252,8.17458107 C39.1662788,7.90489622 38.9274196,7.70819646 38.6596374,7.73503403 C38.3918552,7.76219889 38.1962183,8.00308245 38.2231915,8.27276731" id="Fill-2" fill="#274970"></path>
                    <path d="M43.2561318,50.0683565 L26.1187213,34.1886967 C25.9204845,34.0050884 25.61208,34.0178527 25.4297671,34.217498 C25.2474542,34.4171433 25.2604533,34.7277391 25.4583652,34.9113474 L42.5957757,50.7910071 C42.7940125,50.9746154 43.102417,50.9615239 43.2847299,50.7622059 C43.4670428,50.5625605 43.4540437,50.2519647 43.2561318,50.0683565" id="Fill-3" fill="#274970"></path>
                    <path d="M26.078099,34.1549861 L10.1518829,22.307835 C9.93544729,22.1468096 9.62996761,22.1929571 9.47007824,22.4109305 C9.31018887,22.6292313 9.35601082,22.9365542 9.57244643,23.0975796 L25.4989875,34.9447307 C25.7154231,35.1060834 26.0209028,35.0596086 26.1807922,34.8416352 C26.3406815,34.6236617 26.2945346,34.3160115 26.078099,34.1549861" id="Fill-4" fill="#274970"></path>
                    <path d="M2.90876449,54.204288 L26.0988976,34.9286936 C26.3062338,34.7558859 26.3358068,34.4465992 26.1645432,34.2374625 C25.9932796,34.0283259 25.6858501,33.99887 25.4781889,34.1713505 L2.28838074,53.4469448 C2.08071955,53.6197526 2.05114652,53.9290392 2.22273511,54.1381759 C2.39399872,54.3473126 2.7011033,54.3767684 2.90876449,54.204288" id="Fill-5" fill="#274970"></path>
                    <path d="M42.5288302,50.1449417 L22.2407541,78.848051 C22.0847645,79.0689701 22.1357861,79.3756384 22.3551465,79.5327364 C22.5745069,79.6901616 22.8790117,79.6384502 23.0350013,79.4175312 L43.3230774,50.7144219 C43.479067,50.4935029 43.4280454,50.1868345 43.208685,50.0297365 C42.9893246,49.8723113 42.6848198,49.9240227 42.5288302,50.1449417" id="Fill-6" fill="#274970"></path>
                    <path d="M42.4076132,49.9204225 L54.9634784,79.3268726 C55.0697463,79.5759383 55.3563773,79.6911435 55.6036858,79.5837932 C55.8513194,79.4767702 55.9653868,79.1881027 55.8591189,78.9390369 L43.3035787,49.5325869 C43.1969858,49.2835212 42.9103548,49.168316 42.6630463,49.275339 C42.4157377,49.382362 42.3013453,49.6713568 42.4076132,49.9204225" id="Fill-7" fill="#274970"></path>
                    <path d="M42.7975873,50.2136721 L74.2441215,54.0134794 C74.5112537,54.0458808 74.7540125,53.8537631 74.7861854,53.5844055 C74.8180333,53.3153752 74.627271,53.0708915 74.3601387,53.0384901 L42.9136046,49.2390101 C42.6464724,49.2066086 42.4037135,49.3987263 42.3715406,49.6680839 C42.3393678,49.9371142 42.5301301,50.1815979 42.7975873,50.2136721" id="Fill-8" fill="#274970"></path>
                    <path d="M66.4956616,22.379511 L42.4885329,50.0415189 C42.3114196,50.2457463 42.3322183,50.5556875 42.5350048,50.7340591 C42.7374663,50.9124308 43.0455458,50.8918117 43.222659,50.6875843 L67.2297878,23.0259037 C67.4069011,22.8216763 67.3861024,22.5114078 67.1833159,22.3330361 C66.9808544,22.1546645 66.6727749,22.1756109 66.4956616,22.379511" id="Fill-9" fill="#274970"></path>
                    <path d="M58.9022165,79.1331184 C58.9022165,81.0745876 57.3393954,82.6485129 55.4112986,82.6485129 C53.4832018,82.6485129 51.9203807,81.0745876 51.9203807,79.1331184 C51.9203807,77.191322 53.4832018,75.6173966 55.4112986,75.6173966 C57.3393954,75.6173966 58.9022165,77.191322 58.9022165,79.1331184" id="Fill-10" fill="#F3F2F1"></path>
                    <path d="M58.9022165,79.1331184 L58.4147489,79.1331184 C58.414424,79.9696651 58.0793712,80.7227535 57.5350324,81.2716146 C56.9900437,81.8198211 56.2422684,82.1572544 55.4112986,82.1575817 C54.5803289,82.1572544 53.8325536,81.8198211 53.2875648,81.2716146 C52.743226,80.7227535 52.4081733,79.9696651 52.4078483,79.1331184 C52.4081733,78.2962444 52.743226,77.543156 53.2875648,76.9942949 C53.8325536,76.4460884 54.5803289,76.1086551 55.4112986,76.1083278 C56.2422684,76.1086551 56.9900437,76.4460884 57.5350324,76.9942949 C58.0793712,77.543156 58.414424,78.2962444 58.4147489,79.1331184 L59.3893591,79.1331184 C59.3893591,76.9200007 57.6084775,75.1267927 55.4112986,75.1264654 C53.2137947,75.1267927 51.4332381,76.9200007 51.4329132,79.1331184 C51.4332381,81.3459088 53.2137947,83.1391168 55.4112986,83.1394441 C57.6084775,83.1391168 59.3893591,81.3459088 59.3893591,79.1331184 L58.9022165,79.1331184" id="Fill-11" fill="#274970"></path>
                    <path d="M51.9203807,50.4296818 C51.9203807,55.4325978 47.8935735,59.4880165 42.9259538,59.4880165 C37.958659,59.4880165 33.9315268,55.4325978 33.9315268,50.4296818 C33.9315268,45.4267659 37.958659,41.3713471 42.9259538,41.3713471 C47.8935735,41.3713471 51.9203807,45.4267659 51.9203807,50.4296818" id="Fill-12" fill="#F3F2F1"></path>
                    <path d="M51.9203807,50.4296818 L51.4329132,50.4296818 C51.4325882,52.7969519 50.4817014,54.9357754 48.9413038,56.4877725 C47.4002563,58.0387877 45.2765225,58.9967581 42.9259538,58.9970854 C40.5753851,58.9967581 38.4516513,58.0387877 36.9106037,56.4877725 C35.3702062,54.9357754 34.4189944,52.7969519 34.4186694,50.4296818 C34.4189944,48.0620844 35.3702062,45.9235882 36.9106037,44.3715911 C38.4516513,42.8202486 40.5753851,41.8622782 42.9259538,41.8622782 C45.2765225,41.8622782 47.4002563,42.8202486 48.9413038,44.3715911 C50.4817014,45.9235882 51.4325882,48.0620844 51.4329132,50.4296818 L52.4078483,50.4296818 C52.4075234,45.1554446 48.1626556,40.8807432 42.9259538,40.8804159 C37.688927,40.8807432 33.4440592,45.1554446 33.4440592,50.4296818 C33.4443842,55.7039191 37.688927,59.9786204 42.9259538,59.9789477 C48.1626556,59.9786204 52.4075234,55.7039191 52.4078483,50.4296818 L51.9203807,50.4296818" id="Fill-13" fill="#274970"></path>
                    <path d="M79.1347213,53.5261484 C79.1347213,56.2138329 76.9710151,58.3929127 74.3019676,58.3929127 C71.633245,58.3929127 69.4698639,56.2138329 69.4698639,53.5261484 C69.4698639,50.8381365 71.633245,48.659384 74.3019676,48.659384 C76.9710151,48.659384 79.1347213,50.8381365 79.1347213,53.5261484" id="Fill-14" fill="#369FCD"></path>
                    <path d="M79.1347213,53.5261484 L78.6472537,53.5261484 C78.6469287,54.7358028 78.161411,55.8266518 77.3746383,56.6203239 C76.5865657,57.4126868 75.5034127,57.9016543 74.3019676,57.9019816 C73.1008475,57.9016543 72.0176945,57.4130141 71.2296219,56.6203239 C70.4428492,55.8266518 69.9573315,54.7358028 69.9570065,53.5261484 C69.9573315,52.3161667 70.4428492,51.2253176 71.2296219,50.4319728 C72.0176945,49.6392826 73.1008475,49.1506425 74.3019676,49.1503152 C75.5034127,49.1506425 76.5865657,49.6392826 77.3746383,50.4319728 C78.161411,51.2253176 78.6469287,52.3161667 78.6472537,53.5261484 L79.6218639,53.5261484 C79.6218639,50.5668152 77.2404222,48.1687801 74.3019676,48.1684528 C71.363838,48.1687801 68.9823963,50.5668152 68.9823963,53.5261484 C68.9823963,56.4851542 71.363838,58.8835166 74.3019676,58.8838439 C77.2404222,58.8835166 79.6218639,56.4851542 79.6218639,53.5261484 L79.1347213,53.5261484" id="Fill-15" fill="#274970"></path>
                    <path d="M74.3019676,22.702871 C74.3019676,26.8407662 70.9712641,30.1951352 66.8625622,30.1951352 C62.7538604,30.1951352 59.4231569,26.8407662 59.4231569,22.702871 C59.4231569,18.5646484 62.7538604,15.2102794 66.8625622,15.2102794 C70.9712641,15.2102794 74.3019676,18.5646484 74.3019676,22.702871" id="Fill-16" fill="#FFFFFF"></path>
                    <path d="M66.8625622,15.2102794 L66.8092658,15.2106067 L66.7897671,15.2106067 L66.7712433,15.2109339 L66.7556444,15.2112612 L66.74622,15.2112612 L66.7325709,15.2115885 L66.7244464,15.2115885 L66.7130722,15.2119158 L66.7055977,15.2119158 L66.6958483,15.2122431 L66.6890238,15.2122431 L66.6805743,15.2125704 L66.6737498,15.2125704 L66.6669253,15.2128977 L66.6601007,15.213225 L66.6536011,15.213225 L66.6487265,15.213225 L66.6415769,15.2135522 L66.6370272,15.2138795 L66.6295527,15.2138795 L66.625328,15.2142068 L66.6220782,15.2142068 L66.6142788,15.2145341 L66.6081042,15.2145341 L66.6074542,15.2145341 L66.5993297,15.2148614 L66.595755,15.2151887 L66.5873055,15.215516 L66.581131,15.215516 L66.580806,15.215516 L66.5752813,15.2158433 L66.5717066,15.2158433 L66.5687818,15.2161705 L66.5603323,15.2164978 L66.5567576,15.2164978 L66.5457083,15.2171524 L66.5424585,15.2171524 L66.5421336,15.2171524 L66.5336841,15.2174797 L66.5301094,15.217807 L66.5271845,15.217807 L66.5184101,15.2181343 L66.5151603,15.2184616 L66.5037861,15.2187888 L66.5031361,15.2187888 L66.4917619,15.2194434 L66.4888371,15.2197707 L66.4768129,15.220098 L66.4618639,15.2210799 L66.4501647,15.2217344 L66.4085674,15.2240254 L66.3819192,15.2256619 L66.355271,15.2276256 L66.3169235,15.2302439 L66.3139987,15.2302439 L66.3136737,15.2305712 L66.3022995,15.2312258 L66.3016495,15.2312258 L66.2909253,15.2322076 L66.2899503,15.2322076 L66.2873505,15.2325349 L66.2867005,15.2325349 L66.2789011,15.2331895 L66.2782511,15.2331895 L66.2759762,15.2331895 L66.2753263,15.2335168 L66.2727265,15.2335168 L66.2720765,15.2335168 L66.264277,15.2341714 L66.2633021,15.2341714 L66.2610272,15.2344986 L66.2600523,15.2344986 L66.2522528,15.2351532 L66.2519278,15.2351532 L66.249653,15.2354805 L66.2460782,15.2358078 L66.2451033,15.2358078 L66.2415285,15.2361351 L66.2399036,15.2361351 L66.2382788,15.2364624 L66.2366539,15.2364624 L66.234704,15.2367897 L66.2334041,15.2367897 L66.2314542,15.2367897 L66.2298293,15.2371169 L66.2265795,15.2374442 L66.2249546,15.2374442 L66.2233297,15.2377715 L66.22008,15.2377715 L66.2181301,15.2380988 L66.2165052,15.2380988 L66.2135804,15.2384261 L66.2119555,15.2387534 L66.2100056,15.2387534 L66.2087057,15.2387534 L66.2064309,15.2390807 L66.205131,15.2390807 L66.2018812,15.239408 L66.2015562,15.239408 L66.1983064,15.2397352 L66.1973315,15.2400625 L66.1950566,15.2400625 L66.1937567,15.2403898 L66.1914819,15.2403898 L66.190182,15.2403898 L66.1869322,15.2407171 L66.1859572,15.2410444 L66.1833574,15.2410444 L66.1823825,15.2413717 L66.1797826,15.2413717 L66.1788077,15.241699 L66.1716582,15.2423535 L66.1710082,15.2423535 L66.1684084,15.2426808 L66.1674335,15.2426808 L66.1641837,15.2430081 L66.1638587,15.2430081 L66.1602839,15.2433354 L66.1570342,15.2436627 L66.1563842,15.2436627 L66.1531344,15.24399 L66.1524845,15.24399 L66.1453349,15.2446446 L66.14501,15.2446446 L66.1417602,15.2449718 L66.1414352,15.2449718 L66.130061,15.246281 C66.0497913,15.2541359 65.9698466,15.2632999 65.8902269,15.2737731 C65.6234196,15.3087929 65.4352571,15.5552403 65.4700298,15.8239433 C65.5022027,16.0713727 65.7114888,16.2513808 65.9529477,16.2513808 L66.0163185,16.2474533 C66.294825,16.2107971 66.5795061,16.1921417 66.8625622,16.1921417 C66.9438068,16.1921417 67.0244015,16.1937782 67.1046711,16.1967237 L67.1228699,16.197051 C67.3838276,16.197051 67.5999382,15.9888962 67.6096876,15.7241207 C67.6194369,15.4537812 67.4101508,15.2263165 67.1420437,15.215516 C67.0861474,15.2135522 67.0302511,15.2119158 66.9740298,15.2112612 L66.9620056,15.2109339 L66.9441318,15.2109339 L66.9285329,15.2106067 L66.8979849,15.2102794 L66.8625622,15.2102794 L66.8625622,15.2102794 Z M69.4854629,15.7254298 C69.2934006,15.7254298 69.1110877,15.840635 69.0340679,16.0311163 C68.9323496,16.2821458 69.0522667,16.5688496 69.3015251,16.6709633 C69.5618328,16.7779863 69.8175908,16.9033374 70.0622995,17.044071 C70.1383444,17.0879275 70.2215389,17.1085466 70.3034335,17.1085466 C70.4727472,17.1085466 70.6371863,17.0198517 70.7272053,16.8611173 C70.8607714,16.6254703 70.7792018,16.325675 70.5455424,16.1911599 C70.3788285,16.0952646 70.2078898,16.0059152 70.0333764,15.9227842 L70.0327265,15.9227842 L70.0262269,15.9195113 L70.0255769,15.919184 L70.0229771,15.9182021 L70.0223272,15.9178748 L70.0197273,15.9165657 L70.0187524,15.9159111 L70.0161526,15.9149293 L70.0151776,15.9142747 L70.0132278,15.9132928 L70.0119278,15.9126382 L70.009653,15.9116564 L70.0077031,15.9106745 L70.0060782,15.9100199 L70.0044533,15.9093654 L70.0031534,15.9087108 L70.0015285,15.9077289 L70.0008786,15.9074016 L69.9969788,15.9057652 L69.9960039,15.9051106 L69.994054,15.9044561 L69.9930791,15.9041288 L69.9862546,15.9008559 L69.9859296,15.9005286 C69.8809616,15.8517628 69.7753436,15.805288 69.6677757,15.7611042 C69.6079797,15.7368849 69.5462338,15.7254298 69.4854629,15.7254298 L69.4854629,15.7254298 Z M72.1639348,17.6822815 C72.0524672,17.6822815 71.9400246,17.7205741 71.8487057,17.7991231 C71.6433194,17.9745492 71.618296,18.2844904 71.7924845,18.4910088 C71.9751223,18.7073458 72.145086,18.9377561 72.2978259,19.1756941 C72.3907697,19.321337 72.5477342,19.4005406 72.7076236,19.4005406 C72.7982926,19.4005406 72.8899365,19.3750122 72.9715061,19.3219916 C73.197366,19.1750395 73.2623617,18.8716441 73.1170964,18.643852 C72.9939296,18.4517343 72.8619883,18.2655077 72.7225726,18.0858269 L72.7222476,18.0858269 L72.7176979,18.0796084 L72.717048,18.0789539 L72.7157481,18.0773174 L72.7147731,18.0763356 L72.7124983,18.07339 L72.7118483,18.0724081 L72.7108734,18.0707717 L72.7098985,18.0697898 L72.7085985,18.0684807 L72.7076236,18.0668442 L72.7059987,18.0648805 L72.7046988,18.0632441 L72.7040489,18.0622622 L72.7027489,18.0606258 L72.701774,18.0596439 L72.6998241,18.0570256 L72.6991742,18.0560437 L72.6975493,18.0544073 L72.6968993,18.0534254 L72.6952744,18.0514617 L72.6949495,18.0508071 L72.6926746,18.0478616 L72.6923496,18.0475343 L72.6907247,18.0452433 L72.6900748,18.0445887 L72.6855251,18.0390248 L72.6852001,18.0386975 C72.6364533,17.9768402 72.5864067,17.9156374 72.53571,17.8554165 C72.4391915,17.7411932 72.3020506,17.6822815 72.1639348,17.6822815 L72.1639348,17.6822815 Z M73.6445363,20.6615791 C73.6087887,20.6615791 73.5723911,20.6655066 73.5366435,20.6736888 C73.273736,20.7332551 73.1089719,20.9963942 73.168443,21.2608425 C73.2301889,21.5364185 73.2747109,21.8198494 73.3000592,22.1026258 C73.3234577,22.3575827 73.5359935,22.5490459 73.785252,22.5490459 L73.830099,22.5467548 C74.0982062,22.5222083 74.295468,22.2832884 74.2710947,22.0132763 C74.2428215,21.6990803 74.1950497,21.3907756 74.1290791,21.0890165 L74.1290791,21.0886893 L74.1268043,21.0778888 L74.1268043,21.0775615 L74.1258293,21.0742886 L74.1258293,21.073634 L74.1245294,21.066761 L74.1242044,21.0661064 L74.1235545,21.0631608 L74.1235545,21.0625063 L74.1225795,21.0592334 L74.1225795,21.0589061 L74.1219296,21.0556332 L74.1216046,21.0549786 L74.1212796,21.0523603 L74.1209546,21.0510512 L74.1203047,21.0490875 L74.1199797,21.0477783 L74.1193297,21.0445054 L74.1193297,21.0441782 C74.0679832,20.8160588 73.8671465,20.6615791 73.6445363,20.6615791 L73.6445363,20.6615791 Z M73.5873401,23.9943472 C73.3709045,23.9943472 73.1736426,24.1403174 73.1161215,24.3609092 C73.0446262,24.6345215 72.9546072,24.9061701 72.8480143,25.1683273 C72.7459711,25.4193568 72.8652381,25.7060606 73.1141716,25.8088288 C73.1746176,25.8337027 73.2373384,25.845485 73.2987593,25.845485 C73.4904966,25.845485 73.6721595,25.7309344 73.7495043,25.5417623 C73.7963012,25.4268844 73.8404983,25.3106974 73.8814456,25.1928739 L73.8817705,25.1922193 L73.8853453,25.1820734 L73.8853453,25.1814188 L73.8882701,25.1742185 L73.8882701,25.1735639 L73.8889201,25.1712729 L73.889245,25.1706183 L73.8918449,25.163418 L73.8918449,25.1627634 L73.8928198,25.1607997 L73.8931448,25.1594905 L73.8937947,25.1575268 L73.8941197,25.156545 L73.8954196,25.1529448 L73.8957446,25.1516356 L73.8963946,25.1499992 L73.8967196,25.1483628 L73.8973695,25.1467263 L73.8980195,25.1447626 L73.8989944,25.1424716 L73.8996444,25.1408352 L73.8999693,25.1391987 L73.9006193,25.1375623 L73.9012692,25.1359259 L73.9019192,25.1336348 L73.9025692,25.1319984 L73.9032191,25.1297074 L73.9035441,25.1287255 L73.904519,25.1264345 L73.904844,25.1251254 L73.9058189,25.1221798 L73.9061439,25.1215252 L73.9071189,25.1189069 L73.9074438,25.1175978 L73.9080938,25.1153067 L73.9084188,25.1143249 L73.9093937,25.1113793 L73.9097187,25.1103974 L73.9106936,25.1077791 L73.9110186,25.1067973 L73.9116686,25.1045063 L73.9119935,25.1035244 L73.9132934,25.1002515 L73.9132934,25.0999242 L73.9142684,25.0969786 L73.9145934,25.0959968 L73.9155683,25.0933785 L73.9158933,25.0927239 L73.9168682,25.089451 L73.9168682,25.0891237 L73.9178431,25.0861782 L73.9181681,25.0851963 L73.9191431,25.082578 L73.919468,25.0819234 L73.9217429,25.0750504 L73.9220679,25.0743958 L73.9227178,25.0714502 L73.9230428,25.0707956 L73.9253176,25.0639226 L73.9253176,25.0635953 L73.9266176,25.0603225 L73.9288924,25.0531221 L73.9292174,25.0524676 L73.9298673,25.049522 L73.9301923,25.0491947 L73.9324672,25.0419944 L73.9337671,25.0383942 L73.9360419,25.0311939 L73.9568406,24.9654091 L73.9773142,24.899297 L73.9841387,24.8773688 L73.9841387,24.8770415 L73.9873885,24.866241 L73.9873885,24.8659137 L73.9886884,24.8626408 L73.9886884,24.8623135 L73.9906383,24.8551132 L73.9906383,24.8547859 L73.9916132,24.8515131 L73.9919382,24.8511858 L73.9929132,24.8475856 L73.9938881,24.8443127 L73.9942131,24.8439854 L73.995188,24.8403853 L73.9971379,24.833185 L73.9971379,24.8325304 L73.9984378,24.8292575 L73.9994127,24.8256574 L73.9994127,24.8253301 L74.0003877,24.8220572 L74.0007126,24.8214026 L74.0013626,24.8187843 L74.0016876,24.8178025 L74.0026625,24.8145296 L74.0029875,24.813875 L74.0036374,24.8112567 L74.0039624,24.8102748 L74.0046124,24.8076565 L74.0049374,24.8066747 L74.0059123,24.8037291 L74.0062373,24.8024199 L74.0068872,24.8001289 L74.0072122,24.7991471 L74.0078622,24.7968561 L74.0081871,24.7955469 L74.0091621,24.7926013 L74.0094871,24.7912922 L74.009812,24.7896557 L74.010462,24.787692 L74.010787,24.7860556 L74.0111119,24.7844191 L74.0120869,24.7814735 L74.0127368,24.7798371 L74.0130618,24.7782007 L74.0133868,24.7765642 L74.0140367,24.7749278 L74.0150117,24.7719822 L74.0153367,24.7706731 L74.0159866,24.7687093 L74.0163116,24.7674002 L74.0169616,24.7654365 L74.0172865,24.7641273 L74.0189114,24.7572543 L74.0192364,24.7562724 L74.0198864,24.7543087 L74.0202113,24.7529995 L74.0221612,24.7457992 L74.0224862,24.7454719 L74.0231361,24.7428536 L74.0231361,24.7425263 C74.0358103,24.6983425 74.0475095,24.6538314 74.0592087,24.6089931 C74.1268043,24.3471631 73.9714646,24.079442 73.7114819,24.0107116 C73.6698846,23.9995838 73.6282874,23.9943472 73.5873401,23.9943472 L73.5873401,23.9943472 Z M72.0072952,26.9212789 C71.875029,26.9212789 71.7427628,26.9752813 71.6465692,27.0816497 C71.4571068,27.2917683 71.2520454,27.4910863 71.0369097,27.6743673 C70.8315234,27.8494661 70.8058501,28.1594073 70.9797135,28.366253 C71.0762321,28.4811309 71.2136979,28.5400426 71.3521387,28.5400426 C71.4632813,28.5400426 71.5750739,28.50175 71.6667178,28.4238556 C71.724889,28.3741079 71.7824101,28.3237056 71.8389564,28.2723215 L71.8529304,28.2595573 L71.8532554,28.2595573 L71.8558552,28.256939 L71.8613799,28.2520297 L71.8617049,28.2517024 L71.8701543,28.2441748 L71.8701543,28.2438475 L71.8756789,28.2389382 L71.8760039,28.2386109 L71.8782788,28.2363199 L71.8786037,28.2363199 L71.8841284,28.2314105 L71.8844533,28.230756 L71.8867282,28.2287922 L71.8870532,28.228465 L71.8922528,28.2235556 L71.8929028,28.2232284 L71.8948527,28.2212646 L71.8955026,28.2206101 L71.8981024,28.2183191 L71.8984274,28.2179918 L71.9007023,28.216028 L71.9013522,28.2153735 L71.9033021,28.2134097 L71.903952,28.2127552 L71.9062269,28.2107914 L71.9072018,28.2098096 L71.9088267,28.2081731 L71.9098017,28.2075186 L71.9117515,28.2058821 L71.9127265,28.204573 L71.9146763,28.2029365 L71.9156513,28.2019547 L71.9169512,28.2006455 L71.9182511,28.1996637 L71.920201,28.1976999 L71.9211759,28.1967181 L71.9228008,28.1950816 L71.9237757,28.1940998 L71.9254006,28.1927906 L71.9263756,28.1918088 L71.9286504,28.189845 L71.9296253,28.1888632 L71.9312502,28.187554 L71.9322252,28.1862449 L71.9335251,28.185263 L71.9357999,28.1832993 L71.9367749,28.1819901 L71.9383998,28.180681 L71.9390497,28.1800264 L71.9406746,28.17839 L71.9409996,28.1780627 L71.9442494,28.1751171 L71.9448993,28.1744625 L71.9465242,28.1731534 L71.9474992,28.1721715 L71.9487991,28.1708624 L71.9526988,28.1672622 L71.9530238,28.1666076 L71.9546487,28.1652985 L71.9556236,28.1646439 L71.9608233,28.1594073 L71.9611482,28.15908 L71.9630981,28.1574436 L71.9634231,28.156789 L71.9689477,28.1515524 L71.9692727,28.1512251 L71.9773972,28.1436975 C72.1129132,28.0147463 72.2432295,27.8805584 72.3686711,27.7417885 C72.5490342,27.5411613 72.5340852,27.2312201 72.3351984,27.048921 C72.2419296,26.963499 72.1242874,26.9212789 72.0072952,26.9212789 L72.0072952,26.9212789 Z M69.2641526,28.7845263 C69.2082563,28.7845263 69.1510601,28.7940177 69.0954888,28.8146368 C68.8319313,28.9124957 68.5589495,28.993663 68.2846677,29.0555203 C68.0217602,29.1147594 67.8566711,29.3775712 67.9154922,29.6420195 C67.9665138,29.8704661 68.1676755,30.0256003 68.3909356,30.0256003 C68.4260333,30.0256003 68.4621059,30.0216729 68.4978535,30.0134907 C68.7113643,29.9653795 68.9216253,29.9077769 69.1276616,29.8416648 L69.1279866,29.8416648 L69.1312364,29.8403556 L69.1315614,29.8403556 L69.1383859,29.8380646 L69.1390359,29.8380646 L69.1419607,29.8370828 L69.1426106,29.8367555 L69.1458604,29.8357736 L69.1465104,29.8354463 L69.1491102,29.8347918 L69.1500852,29.8344645 L69.15236,29.8338099 L69.1536599,29.8331553 L69.1565847,29.8321735 L69.1575597,29.8318462 L69.1598345,29.8311916 L69.1611344,29.8308643 L69.1630843,29.8302097 L69.1647092,29.8295552 L69.1660091,29.8292279 L69.1695839,29.8279187 L69.1702338,29.8275914 L69.1725087,29.8269369 L69.1734836,29.8269369 L69.1757584,29.825955 L69.1809581,29.8243186 L69.1812831,29.8243186 L69.1835579,29.8233367 L69.1838829,29.8233367 C69.2680523,29.7955173 69.3512468,29.7663887 69.4337913,29.735951 C69.6853246,29.6416922 69.814341,29.3598977 69.7213972,29.1059226 C69.648927,28.9072591 69.4623894,28.7845263 69.2641526,28.7845263 L69.2641526,28.7845263 Z M65.0816807,28.9815534 C64.86557,28.9815534 64.6683081,29.1271963 64.610787,29.3471335 C64.5418915,29.6092907 64.6969062,29.8776664 64.956889,29.9470514 L64.9919866,29.9562154 L64.9926366,29.9565427 L64.9949114,29.9571973 L64.9952364,29.9571973 L65.0027109,29.959161 L65.0040108,29.9594883 L65.0059607,29.9598156 L65.0069356,29.9601429 L65.0134352,29.9621066 L65.0150601,29.9624339 L65.01701,29.9627612 L65.0183099,29.9630884 L65.0199348,29.963743 L65.0228596,29.9643976 L65.0241595,29.9647249 L65.0264343,29.9653795 L65.0277342,29.9657067 L65.0296841,29.966034 L65.030984,29.9663613 L65.0339088,29.9673432 L65.0345588,29.9673432 L65.0374836,29.9679978 L65.0384585,29.968325 L65.0410584,29.9689796 L65.0417083,29.9693069 L65.0452831,29.9699615 L65.0488578,29.9709433 L65.0491828,29.9709433 L65.0524326,29.9719252 L65.0527576,29.9719252 L65.0599071,29.9735616 L65.0599071,29.9738889 L65.0634819,29.9745435 L65.0638068,29.9745435 L65.0745311,29.9774891 C65.2984412,30.033128 65.5265761,30.0782936 65.7576357,30.1133134 L65.7651102,30.1142952 L65.7654352,30.1142952 L65.768685,30.1149498 L65.7693349,30.1149498 L65.7764845,30.1159317 L65.7774594,30.1159317 L65.7797342,30.1165863 L65.7810342,30.1165863 L65.783634,30.1169135 L65.7846089,30.1172408 L65.7875337,30.1175681 L65.7894836,30.1178954 L65.7911085,30.1178954 L65.7927334,30.1182227 L65.7940333,30.11855 L65.8011828,30.1195318 L65.8024827,30.1198591 L65.8044326,30.1198591 L65.8054075,30.1201864 L65.8164568,30.1218229 L65.8167818,30.1218229 C65.8492796,30.1264049 65.8821024,30.1306596 65.9146003,30.1349144 L65.9760212,30.1388418 C66.2178051,30.1388418 66.4277412,29.9578518 66.4589391,29.709768 C66.4930618,29.4407377 66.3039244,29.1949448 66.0367922,29.1609069 C65.7576357,29.1249053 65.4781543,29.0702483 65.2064724,28.9979178 C65.1645501,28.98679 65.1229529,28.9815534 65.0816807,28.9815534 L65.0816807,28.9815534 Z M62.1786487,27.3853725 C62.0463825,27.3853725 61.9144412,27.4393749 61.8182476,27.5454161 C61.6369097,27.745716 61.6508838,28.0563118 61.8497705,28.2389382 C61.9667628,28.3466157 62.0876547,28.4506931 62.2111465,28.5505158 L62.2140713,28.5528068 L62.2143963,28.5531341 L62.2199209,28.5573888 L62.2205709,28.5580434 L62.2228457,28.5596799 L62.2234957,28.5603344 L62.2260955,28.5622982 L62.2264205,28.5626254 L62.2286953,28.5645892 L62.2296703,28.5652437 L62.2316202,28.5668802 L62.2322701,28.5675348 L62.2348699,28.5694985 L62.2355199,28.5701531 L62.2374698,28.5714622 L62.2384447,28.5724441 L62.2403946,28.5740805 L62.2413695,28.5747351 L62.2436444,28.5763715 L62.2446193,28.5773534 L62.2462442,28.5786625 L62.2475441,28.5796444 L62.249169,28.5809535 L62.2507939,28.5822627 L62.2524188,28.5835718 L62.2537187,28.5845537 L62.2550186,28.5855356 L62.2602183,28.5897903 L62.2611932,28.5904449 L62.2628181,28.591754 L62.263468,28.5924086 L62.2693176,28.5969906 L62.2699676,28.5973179 L62.2715925,28.5989544 L62.2719175,28.5989544 L62.2780921,28.604191 L62.278417,28.604191 C62.3872848,28.6899403 62.4984274,28.772744 62.6118449,28.8526021 C62.6966642,28.9118412 62.7935078,28.9403152 62.8893764,28.9403152 C63.0430912,28.9403152 63.1948561,28.8670028 63.2894248,28.7301966 C63.4434646,28.5076412 63.3895182,28.2016274 63.1685329,28.0464931 C62.9377982,27.8844859 62.715188,27.7051323 62.5068769,27.5136692 C62.4132831,27.4279199 62.2959659,27.3853725 62.1786487,27.3853725 L62.1786487,27.3853725 Z M60.3324464,24.6197935 C60.2768751,24.6197935 60.2200039,24.6296122 60.1647576,24.649904 C59.9122494,24.7431809 59.782583,25.0246481 59.8745519,25.2789505 C59.9869944,25.5885644 60.1192606,25.888687 60.2697256,26.1776818 C60.3571448,26.3445984 60.5264585,26.4398391 60.7016219,26.4398391 C60.7776668,26.4398391 60.8553367,26.4218382 60.9274819,26.3835456 C61.166016,26.2575399 61.2579849,25.9610175 61.1328682,25.7207885 C61.0022269,25.4697591 60.8868596,25.2076018 60.790341,24.9421717 C60.7178708,24.7431809 60.5310082,24.6197935 60.3324464,24.6197935 L60.3324464,24.6197935 Z M59.9674957,21.30699 C59.7260367,21.30699 59.5164257,21.4873254 59.4845778,21.7347547 C59.4787282,21.7812295 59.4732036,21.8280316 59.4680039,21.8748337 L59.466704,21.8862888 L59.466704,21.8866161 L59.466379,21.8892344 L59.466379,21.8902162 L59.466054,21.8925072 L59.466054,21.8928345 L59.4654041,21.8980711 L59.4654041,21.8983984 L59.4650791,21.9006894 L59.4650791,21.9019986 L59.4647541,21.9039623 L59.4647541,21.9049442 L59.4644291,21.9072352 L59.4644291,21.9085443 L59.4641042,21.9118172 L59.4637792,21.9134536 L59.4637792,21.9154174 L59.4634542,21.9170538 L59.4634542,21.9186902 L59.4631292,21.9206539 L59.4628043,21.9219631 L59.4624793,21.925236 L59.4624793,21.9262178 L59.4621543,21.9285088 L59.4621543,21.929818 L59.4618293,21.932109 L59.4618293,21.9330909 L59.4611794,21.9399639 L59.4611794,21.9409458 L59.4608544,21.9435641 L59.4608544,21.9445459 L59.4605294,21.9474915 L59.4605294,21.9481461 L59.4595545,21.9550191 L59.4595545,21.956001 L59.4592295,21.9586193 L59.4592295,21.9592739 L59.4589045,21.9625467 L59.4589045,21.962874 L59.4582546,21.9700744 L59.4582546,21.9707289 L59.4579296,21.9736745 L59.4576046,21.9743291 L59.4572796,21.9779293 L59.4569546,21.9815294 L59.4569546,21.9818567 L59.4566297,21.9851296 L59.4566297,21.9854569 L59.4563047,21.9887297 L59.4563047,21.989057 L59.4553297,22.0001848 L59.4553297,22.0005121 L59.4550048,22.0041122 C59.4423306,22.1428821 59.4332312,22.2826339 59.4280316,22.4236948 L59.4280316,22.4272949 L59.4273816,22.43875 L59.4273816,22.450205 L59.4270566,22.4538052 L59.4270566,22.4541325 L59.4267317,22.4652603 L59.4267317,22.469515 L59.4264067,22.4806428 L59.4264067,22.4809701 L59.4260817,22.4845702 L59.4260817,22.4924251 L59.4257567,22.495698 L59.4257567,22.4963526 L59.4254317,22.5074803 L59.4254317,22.5189354 L59.4251068,22.5225356 L59.4251068,22.5267903 L59.4247818,22.5339906 L59.4247818,22.5418455 L59.4244568,22.5493731 L59.4244568,22.5654102 L59.4241318,22.5680285 L59.4241318,22.5843929 L59.4238068,22.5873385 L59.4238068,22.6066484 L59.4234819,22.6076303 L59.4234819,22.6367589 L59.4231569,22.6383953 L59.4231569,22.702871 C59.4231569,22.973865 59.6412174,23.1938021 59.9106245,23.1938021 C60.1797066,23.1938021 60.3980921,22.973865 60.3980921,22.702871 C60.3980921,22.4210765 60.4159659,22.1379728 60.4513885,21.8607603 C60.4858362,21.5920574 60.2973488,21.3459372 60.0302165,21.3112447 L59.9674957,21.30699 L59.9674957,21.30699 Z M61.1634162,18.2016867 C61.0103514,18.2016867 60.8592364,18.2743445 60.7643427,18.4098415 C60.7100713,18.4880632 60.6574248,18.5672667 60.6057533,18.6477795 L60.5995787,18.6572708 L60.5937291,18.6667621 L60.5934041,18.6667621 L60.5891794,18.6736352 L60.5891794,18.6739625 L60.5875545,18.6762535 L60.5875545,18.6765808 L60.5833297,18.6831265 L60.5830048,18.6837811 L60.5817049,18.6857448 L60.5813799,18.6860721 L60.5771552,18.6926178 L60.5768302,18.6932724 L60.5755303,18.6952361 L60.5755303,18.6955634 L60.5713055,18.7021092 L60.5709806,18.7027637 L60.5696807,18.7050548 L60.5664309,18.7096368 L60.565131,18.7119278 L60.564806,18.7125824 L60.5605813,18.7191281 L60.5605813,18.7194554 L60.5592813,18.7214191 L60.5586314,18.7220737 L60.5550566,18.7282922 L60.5544067,18.7289467 L60.5531068,18.7309105 L60.5527818,18.7318923 L60.5505069,18.7358198 L60.550182,18.7361471 L60.549207,18.7377835 L60.5482321,18.7387654 L60.5472571,18.7404018 L60.5466072,18.741711 L60.5446573,18.7449838 L60.5443323,18.7456384 L60.5430324,18.7476021 L60.5423825,18.7482567 L60.5414075,18.7502204 L60.5407576,18.7512023 L60.5388077,18.7544752 L60.5381578,18.755457 L60.5371828,18.7570935 L60.5365329,18.7580753 L60.5355579,18.7597118 L60.534908,18.7606936 L60.5326331,18.7639665 L60.5323081,18.7649484 L60.5310082,18.7669121 L60.5306832,18.7675667 L60.5267835,18.7737851 L60.5261336,18.774767 L60.5251586,18.7764034 L60.5245087,18.7777126 L60.5232087,18.7800036 L60.5219088,18.78164 L60.5209339,18.7832765 L60.5202839,18.7845856 L60.519309,18.786222 L60.5183341,18.7872039 L60.5167092,18.7901495 L60.5160592,18.7914586 L60.5150843,18.7930951 L60.5144343,18.7940769 L60.5134594,18.7960407 L60.5128094,18.7970225 L60.5108596,18.7999681 L60.5102096,18.80095 L60.5092347,18.8029137 L60.5085847,18.8038956 L60.504685,18.8097867 L60.50436,18.8107686 L60.5033851,18.812405 L60.5027351,18.8133869 L60.5007852,18.8166598 L60.5001353,18.8176416 L60.4991603,18.8192781 L60.4985104,18.8205872 L60.4972105,18.8222237 L60.4968855,18.8232055 L60.4946106,18.8268057 L60.4942857,18.8274603 L60.4933107,18.8290967 L60.4926608,18.8300786 L60.4913609,18.8320423 L60.4910359,18.8326969 L60.489086,18.836297 L60.4884361,18.8372789 L60.4874611,18.8389153 L60.4868112,18.8398972 L60.4855113,18.8418609 L60.4851863,18.8425155 L60.4832364,18.8457884 L60.4825864,18.8467702 L60.4816115,18.8487339 L60.4809616,18.8497158 L60.4799866,18.8513522 L60.4793367,18.8520068 L60.4773868,18.855607 L60.4767368,18.8569161 L60.4757619,18.8585526 L60.4751119,18.8595344 L60.4728371,18.8631346 L60.4725121,18.8637892 L60.4715372,18.8654256 L60.4708872,18.8664075 L60.4699123,18.8683712 L60.4695873,18.8690258 L60.4656876,18.8755715 L60.4650376,18.8762261 L60.4640627,18.8781898 L60.4637377,18.8785171 L60.4614629,18.8827718 L60.4611379,18.8830991 L60.459838,18.8850629 L60.459513,18.8857174 L60.4556132,18.8922632 L60.4552883,18.8929178 L60.4543133,18.8948815 L60.4536634,18.8958633 L60.4497636,18.9024091 L60.4497636,18.9027364 L60.4484637,18.9047001 L60.4481387,18.9053547 L60.444239,18.9119004 L60.443914,18.912555 L60.4426141,18.9145187 L60.4426141,18.914846 L60.4383894,18.9220463 L60.4328648,18.9315377 L60.4325398,18.931865 L60.4227904,18.9488839 L60.4169408,18.9587025 L60.4114162,18.9685212 C60.3584447,19.0611435 60.3074231,19.1554023 60.2583514,19.2503156 C60.1342096,19.4908719 60.2271534,19.7870671 60.4660125,19.9120909 C60.5378328,19.9497289 60.6148527,19.9674025 60.6905726,19.9674025 C60.8663859,19.9674025 61.0366746,19.8711799 61.1234438,19.7029542 C61.2531102,19.4519247 61.4009754,19.2064591 61.5624896,18.974085 C61.7168544,18.7518569 61.6632329,18.4458431 61.4425726,18.2903816 C61.3574283,18.230488 61.2602597,18.2016867 61.1634162,18.2016867 L61.1634162,18.2016867 Z M63.6488509,16.0013331 C63.5734559,16.0013331 63.496761,16.0190067 63.4249408,16.0563174 C63.2803254,16.1322481 63.1389598,16.2127608 63.0001941,16.2978556 L63.0001941,16.2981829 L62.9907697,16.3037467 L62.9904447,16.304074 L62.9836202,16.3080015 L62.9832952,16.3083288 L62.9813453,16.3096379 L62.9806953,16.3099652 L62.9745208,16.3138927 L62.9735458,16.3142199 L62.971596,16.3155291 L62.970621,16.3161837 L62.9683462,16.3178201 L62.9667213,16.318802 L62.9650964,16.3197838 L62.9637965,16.3204384 L62.9621716,16.3214203 L62.9611966,16.3220748 L62.9582718,16.3237113 L62.9569719,16.3246931 L62.955347,16.325675 L62.9543721,16.3263296 L62.9527472,16.3273114 L62.9511223,16.3282933 L62.9488475,16.3296025 L62.9472226,16.3305843 L62.9459227,16.3315662 L62.9442978,16.332548 L62.9429979,16.3332026 L62.940398,16.3348391 L62.9394231,16.3354936 L62.9374732,16.3368028 L62.9364983,16.3374574 L62.9345484,16.3387665 L62.9335735,16.3394211 L62.9306487,16.3410575 L62.9299987,16.3413848 L62.9277239,16.3430212 L62.9270739,16.3433485 L62.9244741,16.344985 L62.9241491,16.3453122 L62.9208993,16.347276 L62.9205743,16.3476033 L62.9179745,16.3492397 L62.9173246,16.349567 L62.911475,16.3531671 L62.910825,16.3534944 L62.9082252,16.3551309 L62.9079002,16.3554582 L62.9017256,16.3593856 L62.9014006,16.3597129 L62.8984758,16.3616766 L62.8981508,16.3616766 C62.7941578,16.4277887 62.6917896,16.4961918 62.5913712,16.5675404 C62.3713609,16.7233293 62.3180644,17.029343 62.4727541,17.2512439 C62.5676478,17.3873955 62.7184378,17.4600533 62.8721526,17.4600533 C62.9686711,17.4600533 63.0664896,17.431252 63.151634,17.3710311 C63.3823686,17.2077147 63.6257775,17.0584716 63.8750359,16.9275566 C64.11357,16.8018782 64.2061889,16.5053558 64.0813972,16.2651268 C63.994303,16.0972284 63.8246642,16.0013331 63.6488509,16.0013331 L63.6488509,16.0013331 Z" id="Fill-17" fill="#274970"></path>
                    <path d="M28.6980748,79.1327911 C28.6980748,82.3428264 26.1144966,84.9450889 22.9271085,84.9450889 C19.7397204,84.9450889 17.1561422,82.3428264 17.1561422,79.1327911 C17.1561422,75.9230831 19.7397204,73.3208206 22.9271085,73.3208206 C26.1144966,73.3208206 28.6980748,75.9230831 28.6980748,79.1327911" id="Fill-18" fill="#F3F2F1"></path>
                    <path d="M28.6980748,79.1327911 L28.2106072,79.1327911 C28.2102822,80.6039482 27.6197965,81.9310988 26.6630601,82.8956149 C25.7053488,83.8591492 24.3875614,84.4538305 22.9271085,84.4541578 C21.4663306,84.4538305 20.1485432,83.8591492 19.1908319,82.8956149 C18.2340955,81.9310988 17.6436098,80.6039482 17.6432848,79.1327911 C17.6436098,77.6619613 18.2340955,76.3348107 19.1908319,75.3702946 C20.1485432,74.4064331 21.4663306,73.8120791 22.9271085,73.8117518 C24.3875614,73.8120791 25.7053488,74.4064331 26.6630601,75.3702946 C27.6197965,76.3348107 28.2102822,77.6619613 28.2106072,79.1327911 L29.1855424,79.1327911 C29.1852174,75.6517618 26.3835787,72.8302167 22.9271085,72.8298894 C19.4703133,72.8302167 16.6686746,75.6517618 16.6686746,79.1327911 C16.6689996,82.6141477 19.4703133,85.4356928 22.9271085,85.4360201 C26.3835787,85.4356928 29.1852174,82.6141477 29.1855424,79.1327911 L28.6980748,79.1327911" id="Fill-19" fill="#274970"></path>
                    <path d="M13.1865311,22.702871 C13.1865311,24.5517178 11.6981301,26.0506943 9.86232716,26.0506943 C8.02619924,26.0506943 6.5377982,24.5517178 6.5377982,22.702871 C6.5377982,20.8536969 8.02619924,19.3547203 9.86232716,19.3547203 C11.6981301,19.3547203 13.1865311,20.8536969 13.1865311,22.702871" id="Fill-20" fill="#F3F2F1"></path>
                    <path d="M13.1865311,22.702871 L12.6990635,22.702871 C12.6987386,23.4932701 12.3822096,24.2044658 11.8680938,24.7228891 C11.353328,25.2406578 10.64715,25.5594358 9.86232716,25.5597631 C9.07717936,25.5594358 8.37132629,25.2406578 7.85623554,24.7228891 C7.34211972,24.2044658 7.02559077,23.4932701 7.02526579,22.702871 C7.02559077,21.9121445 7.34211972,21.2012761 7.85623554,20.6825255 C8.37132629,20.1647568 9.07717936,19.8459788 9.86232716,19.8456515 C10.64715,19.8459788 11.353328,20.1647568 11.8680938,20.6825255 C12.3822096,21.2012761 12.6987386,21.9121445 12.6990635,22.702871 L13.6739987,22.702871 C13.6736737,20.5823756 11.9675372,18.8641165 9.86232716,18.8637892 C7.75679215,18.8641165 6.05065559,20.5823756 6.05033061,22.702871 C6.05065559,24.8230391 7.75679215,26.5412982 9.86232716,26.5416254 C11.9675372,26.5412982 13.6736737,24.8230391 13.6739987,22.702871 L13.1865311,22.702871" id="Fill-21" fill="#274970"></path>
                    <path d="M4.63699958,53.5261484 C4.63699958,54.6598721 3.72446026,55.5788952 2.59873511,55.5788952 C1.47268498,55.5788952 0.560145652,54.6598721 0.560145652,53.5261484 C0.560145652,52.3924246 1.47268498,51.4730742 2.59873511,51.4730742 C3.72446026,51.4730742 4.63699958,52.3924246 4.63699958,53.5261484" id="Fill-22" fill="#369FCD"></path>
                    <path d="M4.63699958,53.5261484 L4.149532,53.5261484 C4.14920702,53.9588224 3.97664349,54.3463307 3.6952122,54.6304162 C3.41313096,54.9138471 3.02835654,55.0876368 2.59873511,55.0879641 C2.16878869,55.0876368 1.78401428,54.9138471 1.50193303,54.6304162 C1.22050175,54.3463307 1.04793822,53.9588224 1.04761324,53.5261484 C1.04793822,53.0931471 1.22050175,52.705966 1.50193303,52.4215532 C1.78401428,52.1381223 2.16878869,51.9643327 2.59873511,51.9640054 C3.02835654,51.9643327 3.41313096,52.1381223 3.6952122,52.4215532 C3.97664349,52.705966 4.14920702,53.0931471 4.149532,53.5261484 L5.12414219,53.5261484 C5.12381722,52.1211033 3.99354237,50.9824703 2.59873511,50.982143 C1.20327789,50.9824703 0.0730030419,52.1211033 0.0726780635,53.5261484 C0.0730030419,54.9311934 1.20327789,56.0694991 2.59873511,56.0698264 C3.99354237,56.0694991 5.12381722,54.9311934 5.12414219,53.5261484 L4.63699958,53.5261484" id="Fill-23" fill="#274970"></path>
                    <path d="M38.2712883,8.00602804 L25.3517723,34.3323759 C25.2321802,34.5755505 25.3309737,34.8701092 25.5724326,34.9898964 C25.8138915,35.1103382 26.1063721,35.0105155 26.2256392,34.7673409 L39.1451552,8.44132035 C39.2647472,8.19814577 39.1656288,7.90358707 38.9244948,7.78347257 C38.6830359,7.66335808 38.3905553,7.76318075 38.2712883,8.00602804" id="Fill-24" fill="#274970"></path>
                    <path d="M30.1127057,34.550022 C30.1127057,36.9549302 28.1764845,38.9049088 25.7885432,38.9049088 C23.400602,38.9049088 21.4643807,36.9549302 21.4643807,34.550022 C21.4643807,32.1447866 23.400602,30.1951352 25.7885432,30.1951352 C28.1764845,30.1951352 30.1127057,32.1447866 30.1127057,34.550022" id="Fill-25" fill="#369FCD"></path>
                    <path d="M30.1127057,34.550022 L29.6252381,34.550022 C29.6249132,35.6182883 29.1965916,36.5814952 28.5014629,37.2822177 C27.8053591,37.9819582 26.8492727,38.4136504 25.7885432,38.4139777 C24.7274888,38.4136504 23.7714024,37.9819582 23.0756236,37.2822177 C22.3804948,36.5814952 21.9521733,35.6182883 21.9518483,34.550022 C21.9521733,33.4814285 22.3804948,32.5185488 23.0756236,31.8178264 C23.7714024,31.1177586 24.7274888,30.6863937 25.7885432,30.6860664 C26.8492727,30.6863937 27.8053591,31.1177586 28.5014629,31.8178264 C29.1965916,32.5185488 29.6249132,33.4814285 29.6252381,34.550022 L30.5998483,34.550022 C30.5995234,31.8734653 28.4458915,29.7045314 25.7885432,29.7042041 C23.1311949,29.7045314 20.9772381,31.8734653 20.9769132,34.550022 C20.9772381,37.2262515 23.1311949,39.3951854 25.7885432,39.3955127 C28.4458915,39.3951854 30.5995234,37.2262515 30.5998483,34.550022 L30.1127057,34.550022" id="Fill-26" fill="#274970"></path>
                    <path d="M45.7227178,8.22367419 C45.7227178,12.1252679 42.5824516,15.2878465 38.7083842,15.2878465 C34.8346418,15.2878465 31.6940506,12.1252679 31.6940506,8.22367419 C31.6940506,4.3224078 34.8346418,1.15950188 38.7083842,1.15950188 C42.5824516,1.15950188 45.7227178,4.3224078 45.7227178,8.22367419" id="Fill-27" fill="#F3F2F1"></path>
                    <path d="M45.7227178,8.22367419 L45.2352502,8.22367419 C45.2349253,10.0404468 44.5053488,11.6804842 43.3237273,12.8714833 C42.140806,14.0618277 40.5123393,14.796588 38.7083842,14.7969153 C36.9044291,14.796588 35.2759624,14.0618277 34.0930411,12.8714833 C32.9114196,11.6804842 32.1818431,10.0404468 32.1815182,8.22367419 C32.1818431,6.40690156 32.9114196,4.76686415 34.0930411,3.57553784 C35.2759624,2.38552067 36.9044291,1.65076035 38.7083842,1.65043306 C40.5123393,1.65076035 42.140806,2.38552067 43.3237273,3.57553784 C44.5053488,4.76686415 45.2349253,6.40690156 45.2352502,8.22367419 L46.2101854,8.22367419 C46.2098604,4.0510865 42.8518587,0.668897998 38.7083842,0.66857071 C34.5652347,0.668897998 31.206908,4.05075921 31.206583,8.22367419 C31.206908,12.3965892 34.5652347,15.7784504 38.7083842,15.7787777 C42.8518587,15.7784504 46.2098604,12.3962619 46.2101854,8.22367419 L45.7227178,8.22367419" id="Fill-28" fill="#274970"></path>
                </g>
                <path d="M70.1805195,0.557768182 C31.8966701,0.557768182 0.861038961,31.5933994 0.861038961,69.8772487 C0.861038961,108.16164 31.8966701,139.196729 70.1805195,139.196729 C108.464369,139.196729 139.5,108.16164 139.5,69.8772487 C139.5,31.5933994 108.464369,0.557768182 70.1805195,0.557768182 L70.1805195,0.557768182 Z M70.1805195,2.18244351 C88.2626143,2.18244351 105.262134,9.22378636 118.047787,22.0099812 C130.833982,34.7956344 137.875325,51.7951539 137.875325,69.8772487 C137.875325,87.9593435 130.833982,104.958863 118.047787,117.744516 C105.262134,130.530711 88.2626143,137.572054 70.1805195,137.572054 C52.0984247,137.572054 35.0989052,130.530711 22.3132519,117.744516 C9.52705714,104.958863 2.48571429,87.9593435 2.48571429,69.8772487 C2.48571429,51.7951539 9.52705714,34.7956344 22.3132519,22.0099812 C35.0989052,9.22378636 52.0984247,2.18244351 70.1805195,2.18244351 L70.1805195,2.18244351 Z" id="Fill-2-Copy" fill="#264A6F" sketch:type="MSShapeGroup"></path>
            </g>
        </g>
    </g>
</svg>