<?xml version="1.0" encoding="utf-8"?>
<!-- Generator: Adobe Illustrator 16.0.0, SVG Export Plug-In . SVG Version: 6.00 Build 0)  -->
<!DOCTYPE svg PUBLIC "-//W3C//DTD SVG 1.1//EN" "http://www.w3.org/Graphics/SVG/1.1/DTD/svg11.dtd">
<svg version="1.1" id="Layer_1" xmlns:sketch="http://www.bohemiancoding.com/sketch/ns"
	 xmlns="http://www.w3.org/2000/svg" xmlns:xlink="http://www.w3.org/1999/xlink" x="0px" y="0px" width="140px" height="140px"
	 viewBox="0 0 140 140" enable-background="new 0 0 140 140" xml:space="preserve">
<title>agile</title>
<desc>Created with Sketch.</desc>
<g id="Page-1" sketch:type="MSPage">
	<g id="Artboard" transform="translate(-284.000000, -146.000000)" sketch:type="MSArtboardGroup">
		<g id="agile" transform="translate(284.000000, 146.000000)" sketch:type="MSLayerGroup">
			<g id="Group" transform="translate(31.000000, 25.000000)" sketch:type="MSShapeGroup">
				<path id="Fill-1" fill="#6F1211" d="M22.638,79.133l0.381-0.307L3.126,53.705l7.047-31.097L38.708,8.769l28.536,13.839
					l7.047,31.097L54.544,78.643H22.638V79.133l0.381-0.307L22.638,79.133v0.49h32.141c0.147,0,0.289-0.066,0.382-0.184L75.2,54.131
					c0.092-0.115,0.127-0.271,0.094-0.415l-7.151-31.558c-0.033-0.145-0.129-0.269-0.264-0.333L38.92,7.781
					c-0.134-0.064-0.29-0.064-0.423,0L9.539,21.826c-0.133,0.065-0.231,0.188-0.264,0.333L2.123,53.717
					c-0.033,0.145,0.002,0.299,0.095,0.415l20.039,25.308c0.092,0.117,0.233,0.185,0.381,0.185V79.133"/>
				<path id="Fill-2" fill="#6F1211" d="M38.223,8.273l4.218,42.206c0.025,0.271,0.266,0.467,0.533,0.439
					c0.267-0.027,0.463-0.268,0.436-0.537L39.193,8.175c-0.027-0.27-0.266-0.467-0.534-0.44C38.392,7.762,38.196,8.003,38.223,8.273
					"/>
				<path id="Fill-3" fill="#6F1211" d="M43.256,50.068l-17.137-15.88c-0.198-0.184-0.506-0.17-0.689,0.029
					c-0.182,0.2-0.169,0.51,0.029,0.694l17.137,15.88c0.198,0.184,0.508,0.17,0.689-0.029S43.454,50.252,43.256,50.068"/>
				<path id="Fill-4" fill="#6F1211" d="M26.078,34.155L10.152,22.308c-0.216-0.161-0.522-0.115-0.682,0.104
					c-0.16,0.218-0.114,0.525,0.102,0.687l15.927,11.847c0.216,0.161,0.522,0.115,0.682-0.103
					C26.341,34.624,26.294,34.316,26.078,34.155"/>
				<path id="Fill-5" fill="#6F1211" d="M2.909,54.204l23.19-19.275c0.207-0.173,0.237-0.482,0.065-0.691
					c-0.171-0.209-0.479-0.238-0.687-0.066L2.289,53.447c-0.208,0.172-0.237,0.482-0.066,0.691
					C2.394,54.348,2.701,54.377,2.909,54.204"/>
				<path id="Fill-6" fill="#6F1211" d="M42.529,50.145L22.241,78.848c-0.156,0.221-0.105,0.527,0.114,0.687
					c0.22,0.155,0.524,0.104,0.68-0.115l20.288-28.703c0.155-0.221,0.104-0.526-0.114-0.687
					C42.988,49.872,42.686,49.924,42.529,50.145"/>
				<path id="Fill-7" fill="#6F1211" d="M42.408,49.92l12.555,29.406c0.107,0.25,0.395,0.365,0.641,0.258
					c0.248-0.107,0.361-0.396,0.256-0.645L43.305,49.533c-0.106-0.25-0.395-0.365-0.642-0.258
					C42.416,49.382,42.301,49.672,42.408,49.92"/>
				<path id="Fill-8" fill="#6F1211" d="M42.797,50.214l31.447,3.8c0.268,0.032,0.51-0.16,0.542-0.43s-0.159-0.514-0.427-0.545
					l-31.445-3.8c-0.268-0.032-0.51,0.159-0.543,0.429C42.34,49.938,42.529,50.182,42.797,50.214"/>
				<path id="Fill-9" fill="#6F1211" d="M66.496,22.379L42.488,50.041c-0.178,0.205-0.156,0.516,0.047,0.693
					c0.201,0.178,0.51,0.156,0.688-0.047L67.23,23.026c0.176-0.204,0.156-0.515-0.047-0.693
					C66.98,22.155,66.673,22.176,66.496,22.379"/>
				<path id="Fill-10" fill="#F3F2F1" d="M58.902,79.133c0,1.941-1.562,3.516-3.491,3.516s-3.491-1.573-3.491-3.516
					c0-1.941,1.562-3.516,3.491-3.516S58.902,77.191,58.902,79.133"/>
				<path id="Fill-11" fill="#6F1211" d="M58.902,79.133h-0.488c0,0.838-0.334,1.59-0.879,2.139s-1.293,0.887-2.124,0.888
					c-0.831-0.001-1.579-0.339-2.124-0.888c-0.544-0.549-0.879-1.301-0.879-2.139c0-0.836,0.335-1.59,0.879-2.139
					c0.545-0.549,1.293-0.887,2.124-0.887s1.579,0.338,2.124,0.887s0.879,1.303,0.879,2.139h0.975c0-2.213-1.779-4.006-3.978-4.006
					s-3.978,1.793-3.978,4.006s1.779,4.006,3.978,4.008c2.196-0.002,3.978-1.795,3.978-4.008H58.902"/>
				<path id="Fill-12" fill="#F3F2F1" d="M51.92,50.43c0,5.004-4.025,9.06-8.994,9.06c-4.967,0-8.994-4.056-8.994-9.06
					c0-5.003,4.027-9.059,8.994-9.059C47.895,41.371,51.92,45.427,51.92,50.43"/>
				<path id="Fill-13" fill="#6F1211" d="M51.92,50.43h-0.486c0,2.367-0.951,4.506-2.492,6.06c-1.541,1.551-3.664,2.508-6.016,2.509
					c-2.351-0.001-4.474-0.958-6.015-2.509c-1.541-1.554-2.492-3.691-2.492-6.06c0-2.367,0.952-4.506,2.492-6.058
					c1.541-1.551,3.665-2.509,6.015-2.509s4.475,0.958,6.016,2.509c1.541,1.552,2.492,3.69,2.492,6.058h0.976
					c0-5.273-4.246-9.549-9.482-9.549c-5.237,0-9.482,4.275-9.482,9.549c0,5.274,4.245,9.549,9.482,9.549
					c5.236,0,9.482-4.273,9.482-9.549H51.92"/>
				<path id="Fill-14" fill="#FB2926" d="M79.135,53.525c0,2.688-2.164,4.867-4.833,4.867s-4.831-2.18-4.831-4.867
					s2.162-4.866,4.831-4.866S79.135,50.838,79.135,53.525"/>
				<path id="Fill-15" fill="#6F1211" d="M79.135,53.525h-0.486c-0.002,1.211-0.485,2.301-1.272,3.095
					c-0.789,0.792-1.871,1.282-3.073,1.282c-1.199,0-2.283-0.489-3.072-1.282c-0.785-0.794-1.271-1.884-1.271-3.095
					c0-1.209,0.486-2.301,1.271-3.094c0.789-0.793,1.873-1.281,3.072-1.281c1.202,0,2.284,0.488,3.073,1.281
					c0.787,0.793,1.271,1.885,1.272,3.094h0.975c0-2.959-2.382-5.356-5.32-5.357c-2.938,0.001-5.318,2.398-5.318,5.357
					s2.381,5.356,5.318,5.357c2.938-0.001,5.32-2.398,5.32-5.357H79.135"/>
				<path id="Fill-16" fill="#FFFFFF" d="M74.302,22.703c0,4.138-3.331,7.492-7.438,7.492c-4.108,0-7.438-3.354-7.438-7.492
					c0-4.139,3.33-7.493,7.438-7.493C70.971,15.21,74.302,18.564,74.302,22.703"/>
				<path id="Fill-17" fill="#6F1211" d="M66.863,15.21h-0.055h-0.021H66.77h-0.016h-0.01H66.73h-0.008H66.71h-0.008h-0.011h-0.006
					h-0.009H66.67h-0.007h-0.007H66.65h-0.006h-0.008h-0.005h-0.008H66.62h-0.003h-0.008h-0.008l0,0h-0.008H66.59h-0.008h-0.007l0,0
					h-0.007h-0.002h-0.004h-0.008H66.55l-0.011,0.001h-0.003h-0.001h-0.01h-0.002H66.52h-0.009h-0.003h-0.012h-0.001h-0.011H66.48
					h-0.013l-0.015,0.001h-0.012l-0.043,0.002l-0.025,0.001l-0.025,0.002l-0.039,0.003h-0.002h-0.002l-0.011,0.001h-0.001
					l-0.011,0.001h0.008h-0.003l0,0l-0.008,0.001h-0.002h-0.002l0,0h-0.002h-0.002l-0.008,0.001l0,0h-0.002H66.26l-0.008,0.001l0,0
					H66.25h-0.004h-0.001h-0.003H66.24h-0.002h-0.002h-0.002h-0.002H66.23l0,0h-0.004h-0.002h-0.002h-0.002h-0.003h-0.002h-0.004
					h-0.001H66.21h-0.001h-0.002h-0.002h-0.004l0,0h-0.003h-0.001h-0.002h-0.002h-0.002h-0.002h-0.002h-0.002h-0.002h-0.002H66.18
					l0,0h-0.008h-0.001h-0.003l0,0h-0.004l0,0H66.16h-0.003h-0.001h-0.004l0,0h-0.008l0,0h-0.004l0,0l-0.012,0.001
					c-0.08,0.008-0.16,0.017-0.238,0.028c-0.269,0.035-0.455,0.281-0.42,0.55c0.03,0.248,0.239,0.428,0.481,0.428l0.062-0.004
					c0.279-0.037,0.564-0.055,0.848-0.055c0.08,0,0.162,0.001,0.242,0.004h0.019c0.261,0,0.478-0.208,0.485-0.473
					c0.011-0.271-0.198-0.498-0.467-0.509c-0.057-0.002-0.111-0.003-0.168-0.004H66.96h-0.019h-0.016h-0.029h-0.033V15.21z
					 M69.484,15.726c-0.191,0-0.373,0.115-0.45,0.306c-0.103,0.251,0.019,0.538,0.268,0.64c0.261,0.107,0.517,0.232,0.761,0.373
					c0.076,0.044,0.16,0.064,0.24,0.064c0.17,0,0.334-0.088,0.424-0.247c0.135-0.236,0.053-0.536-0.182-0.67
					c-0.166-0.096-0.337-0.186-0.512-0.269l0,0l-0.008-0.003l0,0l-0.002-0.001h-0.002l-0.002-0.001h-0.002l-0.002-0.001v-0.001
					l-0.002-0.001h-0.002l-0.003-0.001l-0.002-0.001h-0.002l-0.002-0.001h-0.001l-0.001-0.001H70l-0.004-0.001h-0.001l-0.002-0.001
					h-0.001l-0.008-0.003l0,0c-0.104-0.049-0.211-0.095-0.317-0.139C69.607,15.737,69.547,15.726,69.484,15.726L69.484,15.726z
					 M72.164,17.682c-0.111,0-0.225,0.039-0.314,0.117c-0.205,0.175-0.23,0.485-0.057,0.692c0.182,0.216,0.352,0.446,0.505,0.685
					c0.093,0.146,0.25,0.225,0.409,0.225c0.092,0,0.184-0.025,0.266-0.079c0.226-0.147,0.289-0.45,0.146-0.678
					c-0.123-0.192-0.257-0.378-0.396-0.558l0,0l-0.005-0.006h-0.001l-0.001-0.002l-0.001-0.001l-0.002-0.003l-0.001-0.001
					l-0.001-0.001L72.71,18.07l-0.001-0.001l-0.002-0.001l-0.001-0.002l-0.001-0.001l-0.001-0.001l-0.001-0.002l-0.002-0.001
					l-0.002-0.002v-0.001l-0.002-0.002v-0.001l-0.002-0.002l0,0l-0.002-0.003h-0.002v-0.002l-0.002-0.001l-0.004-0.005l0,0
					c-0.049-0.062-0.101-0.123-0.15-0.183C72.439,17.741,72.303,17.682,72.164,17.682L72.164,17.682z M73.645,20.662
					c-0.035,0-0.071,0.004-0.106,0.012c-0.265,0.06-0.429,0.323-0.369,0.587c0.062,0.276,0.106,0.559,0.132,0.842
					c0.023,0.255,0.236,0.446,0.485,0.446l0.045-0.002c0.269-0.024,0.465-0.264,0.44-0.534c-0.028-0.314-0.076-0.623-0.143-0.924
					l0,0l-0.002-0.011l0,0l-0.001-0.003l0,0l-0.001-0.007l-0.001-0.001l-0.001-0.003l0,0v-0.003l0,0l-0.001-0.003h-0.001v-0.003
					v-0.001l-0.001-0.002v-0.001l-0.001-0.003l0,0C74.068,20.816,73.867,20.662,73.645,20.662L73.645,20.662z M73.588,23.994
					c-0.217,0-0.414,0.146-0.472,0.367c-0.071,0.274-0.161,0.545-0.269,0.808c-0.103,0.251,0.018,0.538,0.266,0.64
					c0.062,0.025,0.123,0.037,0.186,0.037c0.191,0,0.373-0.115,0.451-0.304c0.047-0.115,0.09-0.231,0.131-0.349h0.001l0.003-0.01
					l0,0l0.004-0.007v-0.001v-0.002V25.17l0.004-0.007v-0.001V25.16l0,0l0.002-0.002v-0.001l0.002-0.004v-0.001V25.15v-0.001
					l0.002-0.002v-0.002v-0.002l0.002-0.002V25.14v-0.001l0.002-0.002v-0.002v-0.002l0.002-0.002V25.13v-0.002v-0.001l0.003-0.003
					l0,0l0.001-0.002v-0.001l0.001-0.002v-0.001l0.001-0.003l0.001-0.001v-0.002l0.001-0.001l0.001-0.002v-0.001l0.001-0.003l0,0
					l0.001-0.003v-0.001l0.002-0.003l0,0l0.001-0.003l0,0l0.001-0.003v-0.001l0.001-0.002h0.001l0.002-0.007v-0.001l0.001-0.003l0,0
					l0.003-0.007l0,0l0.001-0.003l0.002-0.007l0.002-0.001v-0.003l0,0l0.002-0.007l0.002-0.003l0.002-0.007l0.021-0.066l0.021-0.066
					l0.008-0.022l0,0l0.002-0.011l0,0l0.002-0.003l0,0l0.002-0.007l0,0l0.002-0.003l0,0l0.001-0.003l0.001-0.003l0,0l0.001-0.003
					l0.002-0.007l0,0L74,24.843v-0.017l0,0v-0.003v-0.001l0.002-0.002v-0.001v-0.003h0.001l0.001-0.003V24.81v-0.002l0.001-0.001
					l0.001-0.003v-0.001l0.001-0.002l0.001-0.001v-0.002v-0.001l0.002-0.003v-0.001V24.79v-0.002l0.001-0.001l0.001-0.002v-0.003
					l0.002-0.001V24.78v-0.002v-0.001l0.002-0.003v-0.001v-0.002V24.77l0.002-0.002v-0.001l0.002-0.007v-0.001v-0.002v-0.001
					l0.002-0.007h0.002v-0.003l0,0c0.013-0.044,0.023-0.089,0.035-0.134c0.068-0.262-0.086-0.529-0.348-0.598
					C73.67,24,73.629,23.994,73.588,23.994L73.588,23.994z M72.008,26.921c-0.133,0-0.266,0.054-0.361,0.16
					c-0.188,0.21-0.395,0.41-0.608,0.593c-0.205,0.175-0.231,0.485-0.058,0.692c0.097,0.115,0.233,0.174,0.371,0.174
					c0.111,0,0.225-0.038,0.314-0.116c0.059-0.05,0.116-0.1,0.173-0.151l0.015-0.013l0,0l0.002-0.003l0.006-0.005l0,0l0.01-0.008
					l0,0l0.005-0.005h0.001l0.003-0.002l0,0l0.006-0.005l0,0l0.003-0.002l0,0l0.006-0.005l0,0l0.002-0.002l0,0l0.004-0.002l0,0
					l0.002-0.002l0,0l0.002-0.002h0.002l0.002-0.002l0.001-0.001l0.001-0.002h0.002l0.002-0.001V28.21l0.002-0.001l0.002-0.001
					l0.001-0.001l0.001-0.001l0.002-0.002l0.002-0.001l0.001-0.001l0.001-0.001l0.002-0.001v-0.001l0.004-0.002v-0.001l0.002-0.001
					v-0.001l0.002-0.001l0.002-0.002l0.002-0.001l0.002-0.001l0,0l0.002-0.002l0,0l0.004-0.003v-0.001l0.002-0.001l0.001-0.001
					l0.002-0.001l0.004-0.003v-0.001l0.002-0.001l0,0l0.006-0.005l0,0l0.002-0.002l0,0l0.007-0.005l0,0l0.008-0.008
					c0.137-0.129,0.267-0.263,0.393-0.402c0.18-0.201,0.165-0.51-0.034-0.693C72.242,26.963,72.125,26.921,72.008,26.921
					L72.008,26.921z M69.264,28.785c-0.056,0-0.113,0.009-0.168,0.03c-0.264,0.098-0.537,0.179-0.811,0.241
					c-0.264,0.059-0.43,0.322-0.369,0.586c0.051,0.229,0.252,0.383,0.475,0.383c0.035,0,0.071-0.004,0.107-0.012
					c0.213-0.048,0.424-0.106,0.629-0.172h0.001l0.003-0.001l0,0l0.008-0.002l0,0l0.004-0.001l0,0l0.004-0.001l0,0h0.002h0.002
					h0.002l0.002-0.001l0.003-0.001h0.002l0.002-0.001h0.001l0.002-0.001h0.001h0.002l0.004-0.001l0,0h0.002h0.002l0.002-0.001
					l0.007-0.002l0,0l0.002-0.001l0,0c0.084-0.028,0.168-0.057,0.25-0.087c0.252-0.094,0.381-0.376,0.287-0.63
					C69.648,28.907,69.463,28.785,69.264,28.785L69.264,28.785z M65.082,28.981c-0.217,0-0.414,0.146-0.471,0.366
					c-0.069,0.262,0.086,0.53,0.346,0.6l0.035,0.009l0,0h0.003l0,0l0.008,0.002h0.001h0.002h0.001l0.007,0.002h0.002h0.002h0.002
					v0.001h0.004h0.002h0.002l0,0h0.002h0.003l0.002,0.001h0.002h0.002h0.002h0.002l0,0h0.004l0.004,0.001l0,0l0.005,0.001l0,0
					l0.008,0.002l0,0l0.002,0.001h0.002l0.01,0.003c0.225,0.056,0.451,0.101,0.684,0.136l0.008,0.001l0,0h0.004l0,0l0.008,0.001l0,0
					l0.003,0.001h0.002h0.002h0.002h0.002h0.002h0.002h0.002h0.001l0.008,0.001h0.002h0.002l0,0l0.012,0.002l0,0
					c0.033,0.004,0.065,0.009,0.098,0.013l0.062,0.004c0.24,0,0.451-0.181,0.481-0.429c0.034-0.269-0.155-0.515-0.422-0.549
					c-0.279-0.036-0.56-0.091-0.83-0.163C65.164,28.987,65.123,28.981,65.082,28.981L65.082,28.981z M62.18,27.385
					c-0.133,0-0.266,0.054-0.361,0.16c-0.182,0.2-0.168,0.511,0.031,0.693c0.117,0.108,0.238,0.212,0.361,0.312l0.003,0.002h0.001
					l0.006,0.004l0,0l0.002,0.001l0.002,0.001l0.002,0.002l0,0l0.002,0.002l0.002,0.001l0.002,0.001l0,0l0.002,0.002l0.002,0.001
					l0.002,0.001v0.001l0.003,0.002h0.001l0.003,0.001v0.001l0.002,0.001l0.002,0.001l0.001,0.001l0.002,0.001l0.001,0.001
					l0.002,0.001l0.001,0.001l0.005,0.004h0.003v0.001h0.002l0.006,0.005l0,0l0.002,0.002l0,0l0.006,0.005l0,0
					c0.109,0.086,0.221,0.169,0.334,0.249c0.086,0.059,0.182,0.088,0.277,0.088c0.153,0,0.307-0.073,0.399-0.21
					c0.153-0.222,0.101-0.528-0.121-0.684c-0.229-0.162-0.453-0.341-0.661-0.533C62.413,27.428,62.296,27.385,62.18,27.385
					L62.18,27.385z M60.332,24.62c-0.055,0-0.111,0.01-0.168,0.03c-0.252,0.093-0.381,0.375-0.289,0.629
					c0.111,0.31,0.244,0.61,0.395,0.899c0.088,0.167,0.258,0.262,0.433,0.262c0.075,0,0.153-0.018,0.228-0.056
					c0.237-0.126,0.329-0.423,0.204-0.663c-0.131-0.251-0.245-0.513-0.342-0.778C60.718,24.743,60.531,24.62,60.332,24.62
					L60.332,24.62z M59.967,21.307c-0.24,0-0.449,0.18-0.482,0.428c-0.006,0.046-0.012,0.093-0.017,0.14l-0.001,0.011l0,0v0.002
					v0.001l-0.001,0.002l0,0l-0.001,0.005l0,0v0.002v0.001v0.002v0.001v0.002v0.001l-0.001,0.003v0.002v0.002l-0.001,0.001v0.002
					v0.002v0.001v0.003v0.001l-0.001,0.002v0.001v0.002v0.001l-0.001,0.007v0.001v0.002v0.001v0.003v0.001l-0.002,0.007v0.001v0.002
					v0.001v0.003l0,0l-0.001,0.007l0,0v0.003h-0.001v0.004v0.003l0,0v0.003l0,0l-0.001,0.003l0,0L59.455,22l0,0v0.003
					c-0.014,0.139-0.021,0.279-0.027,0.42v0.003v0.012v0.011v0.003l0,0l-0.001,0.011v0.004l-0.001,0.011l0,0v0.003v0.008v0.003l0,0
					v0.011v0.012v0.003v0.004l-0.001,0.007v0.008l-0.001,0.007v0.016v0.002v0.017v0.003v0.019v0.001v0.029v0.001v0.065
					c0,0.271,0.217,0.491,0.486,0.491s0.488-0.22,0.488-0.491c0-0.282,0.018-0.565,0.053-0.842c0.035-0.269-0.154-0.515-0.422-0.55
					L59.967,21.307L59.967,21.307z M61.164,18.202c-0.154,0-0.305,0.073-0.4,0.208c-0.054,0.079-0.105,0.158-0.158,0.238
					L60.6,18.657l-0.006,0.01l0,0l-0.004,0.007l0,0l-0.002,0.002l0,0l-0.004,0.006h-0.001l-0.001,0.002l0,0l-0.005,0.006
					l-0.001,0.001v0.002l0,0L60.57,18.7l0,0v0.002l-0.004,0.004l-0.002,0.002l0,0l-0.004,0.007l0,0l-0.002,0.002v0.001l-0.004,0.006
					l0,0l-0.003,0.002v0.001l-0.002,0.004l0,0l-0.002,0.001v0.001l-0.002,0.001v0.001l-0.002,0.003l0,0l-0.002,0.002l0,0
					l-0.002,0.002v0.001l-0.002,0.003l-0.001,0.001l-0.001,0.001v0.001l-0.002,0.001v0.001l-0.002,0.003l-0.001,0.001l-0.002,0.002
					l0,0l-0.004,0.006v0.001l-0.002,0.001v0.001l-0.002,0.002L60.52,18.77v0.001v0.001l-0.002,0.001v0.001l-0.002,0.003
					l-0.002,0.001v0.001v0.001l-0.002,0.002v0.001V18.8l-0.002,0.001v0.002l-0.001,0.001l-0.004,0.006l-0.001,0.001v0.002
					l-0.001,0.001l-0.002,0.003H60.5l-0.001,0.002l-0.001,0.001l-0.001,0.001v0.001l-0.003,0.003v0.001l-0.001,0.001l-0.001,0.001
					l-0.001,0.002l0,0l-0.002,0.004l-0.001,0.001l-0.002,0.001v0.001l-0.002,0.002v0.001l-0.002,0.003v0.001l-0.002,0.002v0.004
					v0.002h-0.002l-0.002,0.003v0.001l-0.002,0.001v0.001l-0.002,0.004l0,0l-0.002,0.001v0.001l-0.002,0.002v0.001l-0.004,0.006
					h-0.001l-0.001,0.002l0,0l-0.003,0.004l0,0l-0.001,0.002h-0.001l-0.004,0.006v0.001l-0.001,0.002l-0.001,0.001l-0.004,0.006l0,0
					l-0.001,0.002l0,0l-0.004,0.007h-0.002v0.002l0,0l-0.004,0.007l-0.006,0.01l0,0l-0.011,0.017l-0.006,0.01l-0.005,0.01
					c-0.055,0.092-0.104,0.187-0.154,0.282c-0.123,0.24-0.031,0.537,0.208,0.662c0.072,0.038,0.149,0.055,0.226,0.055
					c0.176,0,0.347-0.096,0.433-0.264c0.13-0.251,0.276-0.497,0.438-0.729c0.154-0.222,0.102-0.528-0.119-0.684
					C61.357,18.23,61.26,18.202,61.164,18.202L61.164,18.202z M63.648,16.001c-0.075,0-0.152,0.018-0.225,0.055
					c-0.145,0.076-0.285,0.157-0.425,0.242l0,0l-0.011,0.005l0,0l-0.006,0.004l0,0l-0.002,0.001h-0.002l-0.006,0.004l0,0
					l-0.002,0.001l-0.002,0.001l-0.002,0.001l-0.002,0.001l-0.002,0.001h-0.001l-0.001,0.001l-0.002,0.001l-0.002,0.001
					l-0.002,0.001l-0.002,0.001l0,0l-0.002,0.001l-0.002,0.001l-0.002,0.001l-0.002,0.001l-0.002,0.001l-0.002,0.001l0,0
					l-0.004,0.002l0,0l-0.002,0.001h-0.002l-0.002,0.001l0,0l-0.004,0.001l0,0l-0.003,0.001l0,0l-0.004,0.001l0,0l-0.003,0.002
					h-0.001l-0.002,0.001l0,0l-0.006,0.003h-0.002l-0.002,0.001l0,0l-0.007,0.004l0,0l-0.004,0.002l0,0
					c-0.104,0.066-0.207,0.134-0.307,0.206c-0.221,0.156-0.273,0.462-0.119,0.684c0.096,0.136,0.246,0.208,0.399,0.208
					c0.097,0,0.194-0.029,0.28-0.089c0.229-0.164,0.474-0.312,0.723-0.443c0.238-0.126,0.331-0.422,0.207-0.663
					C63.994,16.097,63.824,16.001,63.648,16.001L63.648,16.001z"/>
				<path id="Fill-18" fill="#F3F2F1" d="M28.698,79.133c0,3.21-2.584,5.812-5.771,5.812c-3.188,0-5.771-2.604-5.771-5.812
					s2.583-5.812,5.771-5.812C26.114,73.32,28.698,75.923,28.698,79.133"/>
				<path id="Fill-19" fill="#6F1211" d="M28.698,79.133H28.21c0,1.471-0.591,2.799-1.547,3.764
					c-0.958,0.963-2.275,1.558-3.736,1.559c-1.461-0.001-2.779-0.596-3.736-1.559c-0.957-0.965-1.547-2.293-1.548-3.764
					c0-1.471,0.591-2.798,1.548-3.763c0.958-0.964,2.275-1.558,3.736-1.56c1.46,0.002,2.778,0.596,3.736,1.56
					c0.957,0.965,1.547,2.292,1.547,3.763h0.975c0-3.48-2.802-6.303-6.258-6.303c-3.457,0-6.259,2.822-6.259,6.303
					c0,3.481,2.802,6.303,6.259,6.303c3.457,0,6.258-2.82,6.258-6.303H28.698"/>
				<path id="Fill-20" fill="#F3F2F1" d="M13.187,22.703c0,1.849-1.488,3.348-3.324,3.348c-1.836,0-3.325-1.499-3.325-3.348
					c0-1.85,1.489-3.349,3.325-3.349C11.699,19.354,13.187,20.854,13.187,22.703"/>
				<path id="Fill-21" fill="#7C1413" d="M13.187,22.703H12.7c0,0.79-0.317,1.501-0.831,2.02c-0.515,0.518-1.221,0.837-2.006,0.837
					c-0.785,0-1.491-0.319-2.006-0.837c-0.514-0.518-0.831-1.229-0.831-2.02s0.317-1.502,0.831-2.021
					c0.515-0.518,1.221-0.836,2.006-0.837c0.785,0,1.491,0.319,2.006,0.837c0.514,0.519,0.831,1.229,0.831,2.021h0.975
					c0-2.121-1.706-3.839-3.812-3.839c-2.105,0-3.812,1.719-3.812,3.839s1.707,3.838,3.812,3.838s3.812-1.718,3.812-3.838H13.187"/>
				<path id="Fill-22" fill="#FB2926" d="M4.637,53.525c0,1.135-0.913,2.054-2.039,2.054S0.56,54.66,0.56,53.525
					c0-1.133,0.913-2.053,2.039-2.053S4.637,52.393,4.637,53.525"/>
				<path id="Fill-23" fill="#6F1211" d="M4.637,53.525H4.149c0,0.434-0.173,0.82-0.454,1.104c-0.282,0.283-0.667,0.457-1.097,0.457
					c-0.43,0-0.814-0.174-1.097-0.457c-0.281-0.284-0.454-0.672-0.454-1.104c0-0.432,0.173-0.819,0.454-1.104
					c0.282-0.283,0.667-0.457,1.097-0.458c0.43,0.001,0.814,0.175,1.097,0.458c0.281,0.284,0.454,0.672,0.454,1.104h0.975
					c0-1.404-1.13-2.543-2.525-2.543c-1.396,0-2.525,1.139-2.526,2.543c0,1.406,1.13,2.543,2.526,2.545
					c1.395-0.002,2.525-1.139,2.525-2.545H4.637"/>
				<path id="Fill-24" fill="#6F1211" d="M38.271,8.006l-12.92,26.327c-0.119,0.243-0.021,0.538,0.221,0.657
					c0.242,0.121,0.534,0.021,0.653-0.222l12.92-26.327c0.12-0.243,0.021-0.538-0.221-0.658C38.682,7.663,38.391,7.763,38.271,8.006
					"/>
				<path id="Fill-25" fill="#FB2926" d="M30.113,34.55c0,2.405-1.937,4.355-4.324,4.355c-2.388,0-4.324-1.95-4.324-4.355
					c0-2.405,1.936-4.354,4.324-4.354C28.176,30.195,30.113,32.145,30.113,34.55"/>
				<path id="Fill-26" fill="#6F1211" d="M30.113,34.55h-0.488c0,1.068-0.428,2.032-1.124,2.732c-0.696,0.7-1.652,1.131-2.713,1.132
					c-1.061,0-2.017-0.432-2.713-1.132c-0.695-0.701-1.124-1.664-1.124-2.732c0-1.068,0.429-2.031,1.124-2.732
					c0.696-0.7,1.652-1.131,2.713-1.132c1.061,0,2.017,0.432,2.713,1.132c0.695,0.701,1.124,1.664,1.124,2.732H30.6
					c0-2.676-2.154-4.845-4.811-4.846c-2.657,0-4.812,2.169-4.812,4.846c0,2.677,2.154,4.845,4.812,4.846
					c2.657,0,4.811-2.169,4.811-4.846H30.113"/>
				<path id="Fill-27" fill="#F3F2F1" d="M45.723,8.224c0,3.902-3.141,7.064-7.014,7.064c-3.874,0-7.015-3.163-7.015-7.064
					s3.141-7.064,7.015-7.064C42.582,1.16,45.723,4.322,45.723,8.224"/>
				<path id="Fill-28" fill="#6F1211" d="M45.723,8.224h-0.486c-0.002,1.817-0.729,3.457-1.911,4.648
					c-1.185,1.19-2.812,1.925-4.616,1.925c-1.804,0-3.433-0.735-4.615-1.925c-1.182-1.191-1.912-2.831-1.912-4.648
					s0.73-3.457,1.912-4.648c1.183-1.19,2.811-1.925,4.615-1.925c1.803,0,3.432,0.735,4.616,1.925
					c1.182,1.191,1.909,2.831,1.911,4.648h0.975c0-4.172-3.357-7.555-7.501-7.555c-4.143,0-7.501,3.382-7.502,7.555
					c0,4.173,3.359,7.555,7.502,7.555c4.144,0,7.501-3.382,7.501-7.555H45.723"/>
			</g>
			<path id="Fill-2-Copy" sketch:type="MSShapeGroup" fill="#FFFFFF" d="M70.181,0.558c-38.284,0-69.32,31.036-69.32,69.32
				c0,38.285,31.036,69.32,69.32,69.32c38.284,0,69.319-31.035,69.319-69.32S108.465,0.558,70.181,0.558L70.181,0.558z
				 M70.181,2.183c18.083,0,35.081,7.041,47.867,19.827c12.786,12.786,19.827,29.785,19.827,47.868
				c0,18.082-7.041,35.082-19.827,47.867c-12.786,12.787-29.784,19.828-47.867,19.828c-18.082,0-35.082-7.041-47.867-19.828
				C9.527,104.959,2.486,87.959,2.486,69.877c0-18.083,7.041-35.082,19.828-47.868C35.099,9.224,52.099,2.183,70.181,2.183
				L70.181,2.183z"/>
		</g>
	</g>
</g>
</svg>
