<?xml version="1.0" encoding="utf-8"?>
<!-- Generator: Adobe Illustrator 18.0.0, SVG Export Plug-In . SVG Version: 6.00 Build 0)  -->
<!DOCTYPE svg PUBLIC "-//W3C//DTD SVG 1.1//EN" "http://www.w3.org/Graphics/SVG/1.1/DTD/svg11.dtd">
<svg version="1.1" id="Layer_1" xmlns="http://www.w3.org/2000/svg" xmlns:xlink="http://www.w3.org/1999/xlink" x="0px" y="0px"
	 viewBox="0 128.5 1113 303" enable-background="new 0 128.5 1113 303" xml:space="preserve">
<g>
	<path fill="#205081" d="M351,277.6c-30.4,0-47,14.6-47,42.4v26.1c0,27.8,16.6,42.4,47,42.4s47-14.6,47-42.4V320
		C398,292.3,381.4,277.6,351,277.6 M333,319.2c0-11.4,5.3-16.3,17.5-16.3c12.4,0,17.5,4.9,17.5,16.4v27.8c0,11.4-5.3,16.3-17.5,16.3
		c-12.4,0-17.5-4.9-17.5-16.3V319"/>
	<path fill="#205081" d="M476.5,277.6c-11.4,0-27.3,3.9-40.4,10.1l-1.5-5.8c-0.4-1.5-1.9-3-3.6-3h-16.1c-2.1,0-3.8,2.4-3.8,4.4v99.3
		c0,2.1,1.7,3.3,3.8,3.3h21.8c2.1,0,4.4-1.2,4.4-3.3V314c7-3.9,18.7-8.1,25.3-8.1c4.9,0,6.7,1.9,6.7,6.8v70.2c0,2.1,1.1,4.1,3.2,4.1
		h21.8c2.1,0,4.1-2,4.1-4.1v-72.8C502,288.5,493.2,277.6,476.5,277.6"/>
	<path fill="#205081" d="M579.8,238.6c-5.8-1.5-12.2-2.3-18.6-2.3c-23.3,0-34.2,11.1-34.2,33.6V283h-12.7c-2.1,0-3.3,1.6-3.3,3.6
		V303c0,2.1,1.2,3,3.3,3H527v76.9c0,2.1,1,4.1,3,4.1h21.8c2.1,0,4.2-2,4.2-4.1V306h20.9c1.9,0,4.1-0.8,4.1-2.7V287
		c0-1.1-0.3-2.1-1.1-2.8c-0.8-0.8-1.8-1.2-2.8-1.2H556v-11.4c0-7.9,1.4-10.7,10-10.7c2.6,0,6.7,0.4,10.4,1.1c0.9,0.2,2,0,2.8-0.8
		c0.8-0.6,1.3-1.5,1.5-2.4l2.2-16C582.8,240.8,581.4,239.1,579.8,238.6"/>
	<path fill="#205081" d="M620,239h-22.8c-2.1,0-3.2,1.8-3.2,3.9v139.8c0,2.1,1.1,3.3,3.2,3.3H619c2.1,0,4-1.2,4-3.3V242.9
		c0-2.1-1.4-3.7-3.5-3.7"/>
	<path fill="#205081" d="M726,280h-22.4c-2.1,0-2.6,1.6-2.6,3.6v68.7c-8,3.9-19.2,8.1-25.8,8.1c-4.9,0-7.2-1.9-7.2-6.8v-70.2
		c0-2.1-1.9-4.4-4-4.4h-21.6c-2.1,0-3.4,2.4-3.4,4.4v72.8c0,21.4,8.3,32.1,24.8,32.1c11.4,0,27.1-3.9,40.3-10.1l1.5,5.3
		c0.4,1.5,1.8,2.5,3.5,2.5h16.1c2.1,0,4.8-1.4,4.8-3.5v-99.3c0-1.9-2-3.1-3.9-3.1"/>
	<path fill="#205081" d="M786.6,277.6c-29.1,0-44.6,14.5-44.6,41.9v27.4c0,28.3,14.2,41.5,45.2,41.5c12.6,0,26-2.3,36.7-6
		c1.7-0.6,2.8-2.4,2.4-4.1l-3.2-15.6c-0.2-0.9-0.8-1.9-1.7-2.4c-0.9-0.6-1.9-0.8-3-0.4c-9.9,2.8-19.3,4.1-28.9,4.1
		c-15.8,0-18.4-5.1-18.4-15.8V344h53.5c2.1,0,4.5-1.3,4.5-3.3v-19.9C829,291.5,815.5,277.6,786.6,277.6 M771,320v-3
		c0-10.3,5.1-15,15.8-15c11.8,0,14.2,5.8,14.2,15v3H771"/>
	<path fill="#205081" d="M907.2,277.6c-11.4,0-27.5,3.9-40.6,10.1l-1.6-5.8c-0.4-1.5-2-3-3.7-3h-16.1c-2.1,0-3.1,2.4-3.1,4.4v99.3
		c0,2.1,1,3.3,3.1,3.3h21.8c2.1,0,5.1-1.2,5.1-3.3V314c7-3.9,18.7-8.1,25.3-8.1c4.9,0,6.7,1.9,6.7,6.8v70.2c0,2.1,0.4,4.1,2.5,4.1
		h21.8c2.1,0,4.8-2,4.8-4.1v-72.8C933,288.5,923.7,277.6,907.2,277.6"/>
	<path fill="#205081" d="M1015.3,363.9c-0.2-0.9-0.8-1.9-1.5-2.4c-0.9-0.6-1.9-0.8-2.8-0.6c-6.2,1.5-12.4,2.3-18.6,2.3
		c-13.7,0-17.4-3.6-17.4-15.6v-28.7c0-12.2,3.6-15.6,17.4-15.6c3.8,0,11.8,0.6,18.8,2.3c0.9,0.2,2,0,2.7-0.6
		c0.9-0.6,1.5-1.5,1.5-2.4l2.6-17.3c0.2-1.9-0.8-3.6-2.6-4.1c-8.4-2.4-17.8-3.4-23.6-3.4c-32.8,0-45.7,12-45.7,41.3v28.2
		c0,29.3,12.9,41.3,45.7,41.3c8.1,0,17-1.3,23.8-3.4c1.7-0.6,2.7-2.3,2.5-4.1L1015.3,363.9"/>
	<path fill="#205081" d="M1070.1,277.6c-29.1,0-44.1,14.5-44.1,41.9v27.4c0,28.3,14.4,41.5,45.3,41.5c12.6,0,26-2.3,36.7-6
		c1.7-0.6,2.8-2.4,2.4-4.1l-3.2-15.6c-0.2-0.9-0.8-1.9-1.7-2.4s-1.9-0.8-3-0.4c-9.9,2.8-19.5,4.1-29,4.1c-15.8,0-18.5-5.1-18.5-15.8
		V344h53.8c2.1,0,3.2-1.3,3.2-3.3v-19.9C1112,291.5,1098.8,277.6,1070.1,277.6 M1055,320v-3c0-10.3,5.1-15,15.8-15
		c11.8,0,14.2,5.8,14.2,15v3H1055"/>
	<path fill="#205081" d="M258.1,267.3c8.6,0,20.7,1.1,32.4,3.2c0.9,0.2,2.1,0,2.9-0.8c0.8-0.6,1.3-1.5,1.5-2.4l2.5-19.1
		c0.2-1.9-0.9-3.6-2.8-4.1c-11.4-2.8-24.9-4.3-37.2-4.3c-34.5,0-52.3,14.3-52.3,42.6v63.8c0,28.2,17.7,42.6,52.3,42.6
		c12.4,0,25.7-1.5,37.1-4.3c1.9-0.4,3.1-2.3,2.9-4.1l-2.4-19.1c-0.2-0.9-0.5-1.9-1.5-2.4c-0.8-0.6-1.9-0.8-2.8-0.8
		c-11.4,2.1-23.6,3.2-32.5,3.2c-17.1,0-23.1-5.1-23.1-19.9v-54.4C235,272.4,241,267.3,258.1,267.3"/>
	<path fill="#205081" d="M133.9,349.3c-2.4-4.7-5.1-9.4-8.4-14.1c-2.3-3.4-4.9-6.8-7.5-9.9c-1.1-1.3-0.6-3,0.2-3.8
		c0.8-0.8,1.7-1.7,2.4-2.4c11.3-11.4,22.7-23.3,31.5-35.8c9.4-13.5,14.6-26.5,16-39.6c0.2-1.3-0.6-2.8-1.5-3.6
		c-0.8-0.6-1.5-0.8-2.4-0.8c-0.6,0-0.9,0-1.5,0.2c-8.6,3.4-17.3,5.8-25.3,7.7c-1.7,0.4-3,1.5-3.6,3c-5.8,16-20.6,31-36.2,46.9
		c-0.6,0.6-1.5,1.3-3,1.3s-2.3-0.8-3-1.3c-15.6-16-30.4-31-36.2-46.9c-0.6-1.5-1.9-2.6-3.6-3c-7.9-1.9-16.7-4.5-25.3-7.9
		c-0.4-0.2-0.9-0.2-1.5-0.2c-0.9,0-1.7,0.2-2.4,0.8c-1.1,0.8-1.7,2.3-1.5,3.6c1.3,13.1,6.6,26.3,16,39.8
		c8.8,12.8,20.5,24.6,31.5,35.8c20.6,21,40,41.1,41.8,64c0.2,2.1,1.9,3.9,3.9,3.9h24.2c1.1,0,2.1-0.5,2.8-1.5c0.8-0.8,0.9-2,0.9-3.1
		c-0.2-4.3-1.1-8.7-2.1-13.1v0c0-0.2,0-0.2,0-0.4c0-0.9,1.2-2,1.9-2h0.2l0,0c19.7,0,32.3,7.7,32.3,12.7l0,0
		c0,4.9-11.3,12.1-29.5,17.3l0,0c-1.7,0.4-2.8,1.9-2.8,3.8c0,2.1,1.7,3.8,3.9,3.8c0.4,0,0.6,0,0.9-0.2c24.6-5.6,40.7-15.2,40.7-25.9
		C188.5,365.8,166.5,354.4,133.9,349.3"/>
	<path fill="#205081" d="M68.9,336.7c-0.6-0.6-1.5-1.1-2.8-1.1c-1.9,0-2.8,1.1-3.2,1.9c-2.6,3.9-4.9,8.1-6.9,11.8
		c-32.7,5.1-54.6,16.5-54.6,29.3c0,10.7,16.1,20.3,40.7,25.9l0,0c0.4,0,0.6,0.2,0.9,0.2c2.1,0,3.9-1.7,3.9-3.8
		c0-1.7-1.1-3.2-2.8-3.6l0,0c-18.2-5.3-29.5-12.8-29.5-17.5l0,0c0-5.1,12.4-9.8,32.3-12.8h0.2c0.9,0,1.8,1.3,1.8,2.2
		c0,0.2,0,0.2,0,0.4l0,0c0,4.3-1.8,8.6-1.9,12.9c0,1.1,0.3,2.3,1.1,3.1c0.8,0.8,1.8,1.4,2.8,1.4h24.2c2.1,0,3.8-1.8,3.9-3.8
		c0.6-7.1,2.8-14.3,6.8-21.6c1.3-2.6,0.4-5.1-0.6-6C81.1,349.9,76.3,344.2,68.9,336.7"/>
	<path fill="#205081" d="M92,277.1c0.9,0.9,2.1,1.1,2.8,1.1l0,0c0.8,0,1.9-0.2,2.8-1.1c8.4-8.3,13.1-18,14.1-20.6
		c0.2-0.4,0.4-0.8,0.4-1.5c0-2.1-1.9-3.8-3.8-3.8c-1.5,0-6,0.4-13.5,0.4l0,0c-7.5,0-12-0.4-13.5-0.4c-1.9,0-3.8,1.5-3.8,3.8
		c0,0.6,0.2,1.1,0.4,1.5C79.1,259,83.6,268.6,92,277.1"/>
</g>
</svg>
