<?xml version="1.0" encoding="utf-8"?>
<!-- Generator: Adobe Illustrator 16.0.0, SVG Export Plug-In . SVG Version: 6.00 Build 0)  -->
<!DOCTYPE svg PUBLIC "-//W3C//DTD SVG 1.1//EN" "http://www.w3.org/Graphics/SVG/1.1/DTD/svg11.dtd">
<svg version="1.1" id="Layer_1" xmlns="http://www.w3.org/2000/svg" xmlns:xlink="http://www.w3.org/1999/xlink" x="0px" y="0px"
	 width="102.822px" height="102.822px" viewBox="0 0 102.822 102.822" enable-background="new 0 0 102.822 102.822"
	 xml:space="preserve">
<rect x="15.412" y="17.412" fill="none" stroke="#FFFFFF" stroke-linecap="round" stroke-linejoin="round" stroke-miterlimit="10" width="72" height="72"/>
<rect x="15.412" y="15.412" transform="matrix(0.7071 0.7071 -0.7071 0.7071 51.4111 -21.2952)" fill="none" stroke="#FFFFFF" stroke-linecap="round" stroke-linejoin="round" stroke-miterlimit="10" width="71.999" height="71.999"/>
<g>
	
		<line fill="none" stroke="#FFFFFF" stroke-width="2" stroke-linecap="round" stroke-linejoin="round" stroke-miterlimit="10" x1="49.414" y1="42.092" x2="53.407" y2="42.092"/>
	
		<line fill="none" stroke="#FFFFFF" stroke-width="2" stroke-linecap="round" stroke-linejoin="round" stroke-miterlimit="10" x1="45.42" y1="46.086" x2="57.401" y2="46.086"/>
	
		<line fill="none" stroke="#FFFFFF" stroke-width="2" stroke-linecap="round" stroke-linejoin="round" stroke-miterlimit="10" x1="45.42" y1="50.08" x2="57.401" y2="50.08"/>
	
		<polyline fill="none" stroke="#FFFFFF" stroke-width="2" stroke-linecap="round" stroke-linejoin="round" stroke-miterlimit="10" points="
		40.095,52.743 40.095,34.104 58.733,34.104 62.727,38.099 62.727,52.743 	"/>
	
		<polyline fill="none" stroke="#FFFFFF" stroke-width="2" stroke-linecap="round" stroke-linejoin="round" stroke-miterlimit="10" points="
		58.733,34.104 58.733,38.099 62.727,38.099 	"/>
	<path fill="none" stroke="#FFFFFF" stroke-width="2" stroke-linecap="round" stroke-linejoin="round" stroke-miterlimit="10" d="
		M37.433,46.086h-0.666l-4.66,8.653v12.647c0,0.735,0.596,1.331,1.331,1.331h35.944c0.736,0,1.332-0.596,1.332-1.331V54.739
		l-4.66-8.653H65.39"/>
	<path fill="none" stroke="#FFFFFF" stroke-width="2" stroke-linecap="round" stroke-linejoin="round" stroke-miterlimit="10" d="
		M32.107,55.405h11.981v3.994c0,0.735,0.596,1.331,1.332,1.331h11.981c0.736,0,1.332-0.596,1.332-1.331v-3.994h11.981"/>
</g>
<g>
</g>
<g>
</g>
<g>
</g>
<g>
</g>
<g>
</g>
<g>
</g>
</svg>
