<?xml version="1.0" encoding="UTF-8" standalone="no"?>
<svg width="139px" height="139px" viewBox="0 0 139 139" version="1.1" xmlns="http://www.w3.org/2000/svg" xmlns:xlink="http://www.w3.org/1999/xlink" xmlns:sketch="http://www.bohemiancoding.com/sketch/ns">
    <!-- Generator: Sketch 3.3.2 (12043) - http://www.bohemiancoding.com/sketch -->
    <title>git</title>
    <desc>Created with Sketch.</desc>
    <defs></defs>
    <g id="Page-1" stroke="none" stroke-width="1" fill="none" fill-rule="evenodd" sketch:type="MSPage">
        <g id="Artboard" sketch:type="MSArtboardGroup" transform="translate(-119.000000, -143.000000)">
            <g id="git" sketch:type="MSLayerGroup" transform="translate(118.000000, 143.000000)">
                <g id="Path-53-+-Oval-1-+-Rectangle-2" sketch:type="MSShapeGroup">
                    <g id="Group" transform="translate(48.000000, 34.000000)">
                        <path d="M21.8981481,71 C27.3954269,71 31.8518519,67.8689257 31.8518519,63.0224719 C31.8518519,58.1760181 27.3954269,54.247191 21.8981481,54.247191 C16.4008694,54.247191 11.9444444,58.1760181 11.9444444,63.0224719 C11.9444444,67.8689257 16.4008694,71 21.8981481,71 Z" id="Oval-2" fill="#274A6F"></path>
                        <path d="M32.6481481,39.9605649 C38.8543094,36.1828903 43,29.3461326 43,21.5393258 C43,9.64348466 33.3741221,0 21.5,0 C9.62587788,0 0,9.64348466 0,21.5393258 C0,29.6754757 4.50285451,36.7580039 11.1481481,40.4221776 L11.1481481,49.4606742 L32.6481481,49.4606742 L32.6481481,39.9605649 Z" id="Oval-1" stroke="#274A6F" stroke-width="0.799999952" fill="#E8B845"></path>
                        <path d="M18.4583465,49.8011271 L18.4583465,27.3997074 L12.201434,27.3997074 L12.201434,33.647302 L31.7141104,33.647302 L31.7141104,27.4588167 L25.6157871,27.4588167 L25.6157871,50.027694" id="Path-53" stroke="#274A6F" stroke-width="0.799999952" stroke-linecap="round"></path>
                        <rect id="Rectangle-2" stroke="#274A6F" stroke-width="0.799999952" fill="#F2F2F0" x="11.1481481" y="48.6629213" width="21.5" height="11.9662921"></rect>
                    </g>
                    <path d="M70.3194805,0 C32.0356312,0 1,31.0356312 1,69.3194805 C1,107.603871 32.0356312,138.638961 70.3194805,138.638961 C108.60333,138.638961 139.638961,107.603871 139.638961,69.3194805 C139.638961,31.0356312 108.60333,0 70.3194805,0 L70.3194805,0 Z M70.3194805,1.62467532 C88.4015753,1.62467532 105.401095,8.66601818 118.186748,21.452213 C130.972943,34.2378662 138.014286,51.2373857 138.014286,69.3194805 C138.014286,87.4015753 130.972943,104.401095 118.186748,117.186748 C105.401095,129.972943 88.4015753,137.014286 70.3194805,137.014286 C52.2373857,137.014286 35.2378662,129.972943 22.452213,117.186748 C9.66601818,104.401095 2.62467532,87.4015753 2.62467532,69.3194805 C2.62467532,51.2373857 9.66601818,34.2378662 22.452213,21.452213 C35.2378662,8.66601818 52.2373857,1.62467532 70.3194805,1.62467532 L70.3194805,1.62467532 Z" id="Fill-2" fill="#264A6F"></path>
                </g>
            </g>
        </g>
    </g>
</svg>