<?xml version="1.0" encoding="utf-8"?>
<!-- Generator: Adobe Illustrator 16.0.0, SVG Export Plug-In . SVG Version: 6.00 Build 0)  -->
<!DOCTYPE svg PUBLIC "-//W3C//DTD SVG 1.1//EN" "http://www.w3.org/Graphics/SVG/1.1/DTD/svg11.dtd">
<svg version="1.1" id="Layer_1" xmlns:sketch="http://www.bohemiancoding.com/sketch/ns"
	 xmlns="http://www.w3.org/2000/svg" xmlns:xlink="http://www.w3.org/1999/xlink" x="0px" y="0px" width="139px" height="139px"
	 viewBox="0 0 139 139" enable-background="new 0 0 139 139" xml:space="preserve">
<title>git</title>
<desc>Created with Sketch.</desc>
<g id="Page-1" sketch:type="MSPage">
	<g id="Artboard" transform="translate(-119.000000, -143.000000)" sketch:type="MSArtboardGroup">
		<g id="git" transform="translate(118.000000, 143.000000)" sketch:type="MSLayerGroup">
			<g id="Path-53-_x2B_-Oval-1-_x2B_-Rectangle-2" sketch:type="MSShapeGroup">
				<g id="Group" transform="translate(48.000000, 34.000000)">
					<path id="Oval-2" fill="#6F1211" d="M21.898,71c5.498,0,9.954-3.131,9.954-7.978s-4.456-8.775-9.954-8.775
						c-5.497,0-9.954,3.929-9.954,8.775S16.401,71,21.898,71z"/>
					<path id="Oval-1" fill="#EFC63B" stroke="#6F1211" stroke-width="0.8" d="M32.648,39.961C38.854,36.184,43,29.346,43,21.54
						C43,9.644,33.374,0,21.5,0S0,9.644,0,21.54c0,8.136,4.503,15.218,11.148,18.882v9.039h21.5V39.961z"/>
					<path id="Path-53" fill="none" stroke="#6F1211" stroke-width="0.8" stroke-linecap="round" d="M18.458,49.801V27.4h-6.257
						v6.248h19.512v-6.188h-6.099v22.568"/>
					
						<rect id="Rectangle-2" x="11.148" y="48.663" fill="#F2F2F0" stroke="#6F1211" stroke-width="0.8" width="21.5" height="11.966"/>
				</g>
				<path id="Fill-2" fill="#6F1211" d="M70.319,0C32.036,0,1,31.036,1,69.319c0,38.284,31.036,69.319,69.319,69.319
					c38.284,0,69.319-31.035,69.319-69.319C139.639,31.036,108.604,0,70.319,0L70.319,0z M70.319,1.625
					c18.082,0,35.081,7.042,47.867,19.828c12.786,12.786,19.827,29.785,19.827,47.867s-7.041,35.081-19.827,47.867
					s-29.785,19.827-47.867,19.827s-35.082-7.041-47.867-19.827C9.666,104.4,2.625,87.401,2.625,69.319s7.042-35.082,19.828-47.867
					C35.238,8.666,52.237,1.625,70.319,1.625L70.319,1.625z"/>
			</g>
		</g>
	</g>
</g>
</svg>
