<?xml version="1.0" encoding="utf-8"?>
<!-- Generator: Adobe Illustrator 16.0.0, SVG Export Plug-In . SVG Version: 6.00 Build 0)  -->
<!DOCTYPE svg PUBLIC "-//W3C//DTD SVG 1.1//EN" "http://www.w3.org/Graphics/SVG/1.1/DTD/svg11.dtd">
<svg version="1.1" id="Layer_1" xmlns:sketch="http://www.bohemiancoding.com/sketch/ns"
	 xmlns="http://www.w3.org/2000/svg" xmlns:xlink="http://www.w3.org/1999/xlink" x="0px" y="0px" width="139px" height="139px"
	 viewBox="0 0 139 139" enable-background="new 0 0 139 139" xml:space="preserve">
<title>git</title>
<desc>Created with Sketch.</desc>
<g id="Page-1" sketch:type="MSPage">
	<g id="Artboard" transform="translate(-119.000000, -143.000000)" sketch:type="MSArtboardGroup">
		<g id="git" transform="translate(118.000000, 143.000000)" sketch:type="MSLayerGroup">
			<g id="Path-53-_x2B_-Oval-1-_x2B_-Rectangle-2" sketch:type="MSShapeGroup">
				<g id="Group" transform="translate(48.000000, 34.000000)">
					<path id="Oval-2" fill="#6F1211" d="M21.898,71c5.499,0,9.954-3.131,9.954-7.979c0-4.847-4.455-8.774-9.954-8.774
						c-5.497,0-9.954,3.929-9.954,8.774C11.944,67.868,16.401,71,21.898,71z"/>
					<path id="Oval-1" fill="#EFC63B" stroke="#6F1211" stroke-width="0.8" d="M32.648,39.961C38.854,36.184,43,29.346,43,21.54
						C43,9.644,33.374,0,21.5,0S0,9.644,0,21.54c0,8.136,4.503,15.218,11.148,18.882v9.039h21.5V39.961z"/>
					<path id="Path-53" fill="none" stroke="#6F1211" stroke-width="0.8" stroke-linecap="round" d="M18.458,49.801V27.4h-6.257
						v6.248h19.512V27.46h-6.1v22.567"/>
					
						<rect id="Rectangle-2" x="11.148" y="48.663" fill="#F2F2F0" stroke="#6F1211" stroke-width="0.8" width="21.5" height="11.966"/>
				</g>
				<path id="Fill-2" fill="#FFFFFF" d="M70.319,0C32.036,0,1,31.036,1,69.319c0,38.285,31.036,69.32,69.319,69.32
					c38.285,0,69.32-31.035,69.32-69.32C139.639,31.036,108.604,0,70.319,0L70.319,0z M70.319,1.625
					c18.082,0,35.082,7.042,47.867,19.828c12.787,12.786,19.828,29.785,19.828,47.867c0,18.083-7.041,35.081-19.828,47.868
					C105.4,129.973,88.4,137.014,70.319,137.014c-18.082,0-35.082-7.041-47.867-19.826C9.666,104.4,2.625,87.4,2.625,69.319
					c0-18.082,7.042-35.082,19.828-47.867C35.238,8.666,52.237,1.625,70.319,1.625L70.319,1.625z"/>
			</g>
		</g>
	</g>
</g>
</svg>
