<?xml version="1.0" encoding="utf-8"?>
<!-- Generator: Adobe Illustrator 16.0.0, SVG Export Plug-In . SVG Version: 6.00 Build 0)  -->
<!DOCTYPE svg PUBLIC "-//W3C//DTD SVG 1.1//EN" "http://www.w3.org/Graphics/SVG/1.1/DTD/svg11.dtd">
<svg version="1.1" id="Layer_1" xmlns:sketch="http://www.bohemiancoding.com/sketch/ns"
	 xmlns="http://www.w3.org/2000/svg" xmlns:xlink="http://www.w3.org/1999/xlink" x="0px" y="0px" width="139px" height="139px"
	 viewBox="0 0 139 139" enable-background="new 0 0 139 139" xml:space="preserve">
<title>helpdesk</title>
<desc>Created with Sketch.</desc>
<g id="Page-1" sketch:type="MSPage">
	<g id="Artboard" transform="translate(-451.000000, -147.000000)" sketch:type="MSArtboardGroup">
		<g id="helpdesk" transform="translate(451.000000, 147.000000)" sketch:type="MSLayerGroup">
			<path id="Fill-2-Copy-2" sketch:type="MSShapeGroup" fill="#6F1211" d="M69.319,0C31.036,0,0,31.036,0,69.319
				c0,38.284,31.036,69.319,69.319,69.319c38.284,0,69.319-31.035,69.319-69.319C138.639,31.036,107.604,0,69.319,0L69.319,0z
				 M69.319,1.625c18.082,0,35.081,7.042,47.867,19.828c12.786,12.786,19.827,29.785,19.827,47.867s-7.041,35.081-19.827,47.867
				s-29.785,19.827-47.867,19.827s-35.082-7.041-47.867-19.827C8.666,104.4,1.625,87.401,1.625,69.319s7.042-35.082,19.828-47.867
				C34.238,8.666,51.237,1.625,69.319,1.625L69.319,1.625z"/>
			<g id="Illustration-04" transform="translate(28.000000, 35.000000)" sketch:type="MSShapeGroup">
				<path id="Fill-1" fill="#EAE8E5" d="M74.752,45.666H8.248c-0.705,0-1.277-0.571-1.277-1.276V3.164
					c0-1.411,1.144-2.554,2.554-2.554h63.949c1.41,0,2.555,1.144,2.555,2.554V44.39C76.029,45.095,75.457,45.666,74.752,45.666"/>
				<path id="Fill-2" fill="#6F1211" d="M74.752,45.666v-0.479H8.248c-0.44,0-0.797-0.357-0.798-0.798V3.164
					c0-0.575,0.232-1.09,0.608-1.467C8.435,1.32,8.951,1.089,9.525,1.089h63.949c0.574,0,1.09,0.231,1.467,0.608
					c0.377,0.377,0.607,0.893,0.608,1.467V44.39c-0.001,0.44-0.357,0.798-0.798,0.798v0.958c0.97-0.001,1.756-0.786,1.756-1.756
					V3.164c0-1.675-1.357-3.033-3.033-3.033H9.525c-1.675,0-3.033,1.357-3.033,3.033V44.39c0,0.97,0.786,1.755,1.756,1.756h66.504
					V45.666"/>
				<path id="Fill-3" fill="#EE2724" d="M10.889,4.727h61.222V41.43H10.889V4.727z"/>
				<path id="Fill-4" fill="#6F1211" d="M10.889,41.43h0.479V5.206h60.265v35.746H10.889V41.43h0.479H10.889v0.479H72.59V4.248
					H10.41v37.661h0.479V41.43"/>
				<path id="Fill-5" fill="#EAE8E5" d="M76.533,47.106c-0.301-0.909-1.15-1.522-2.109-1.522H8.576
					c-0.958,0-1.808,0.613-2.109,1.522L0.729,62.502h81.543L76.533,47.106"/>
				<path id="Fill-6" fill="#6F1211" d="M76.533,47.106l0.455-0.15c-0.367-1.105-1.399-1.851-2.564-1.851H8.576
					c-1.165,0-2.197,0.745-2.563,1.851l0.455,0.15l-0.449-0.167L0.039,62.98h82.922l-5.979-16.041L76.533,47.106l0.455-0.15
					L76.533,47.106l-0.449,0.167l5.498,14.75H1.418l5.5-14.758l0.003-0.009c0.236-0.713,0.903-1.194,1.654-1.194h65.848
					c0.752,0,1.419,0.481,1.654,1.194l0.004,0.009l0.002,0.008L76.533,47.106"/>
				<path id="Fill-7" fill="#EAE8E5" d="M0.729,62.502c-0.375,1.133,0.469,2.302,1.663,2.302h78.218
					c1.193,0,2.037-1.169,1.662-2.302H0.729"/>
				<path id="Fill-8" fill="#6F1211" d="M0.729,62.502l-0.454-0.15c-0.078,0.233-0.115,0.471-0.115,0.704
					c0,0.595,0.24,1.15,0.638,1.558c0.397,0.408,0.962,0.67,1.594,0.67h78.218c0.631,0,1.196-0.262,1.593-0.67
					c0.397-0.407,0.638-0.963,0.638-1.558c0-0.232-0.037-0.471-0.114-0.704l-0.108-0.328H0.383l-0.108,0.328L0.729,62.502v0.479
					h81.543v-0.479l-0.455,0.15c0.045,0.137,0.066,0.271,0.066,0.403c0,0.335-0.137,0.654-0.365,0.889
					c-0.23,0.233-0.542,0.38-0.908,0.381H2.391c-0.367-0.001-0.678-0.147-0.908-0.381c-0.229-0.234-0.366-0.554-0.366-0.889
					c0-0.132,0.021-0.267,0.066-0.403L0.729,62.502v0.479V62.502"/>
				<path id="Fill-9" fill="#FFFFFF" d="M51.314,59.55H31.686c-0.573,0-0.991-0.54-0.848-1.095l1.297-5.004
					c0.1-0.387,0.448-0.656,0.848-0.656h17.033c0.399,0,0.748,0.27,0.848,0.656l1.298,5.004C52.305,59.01,51.887,59.55,51.314,59.55
					"/>
				<path id="Fill-10" fill="#6F1211" d="M51.314,59.55v-0.479H31.686c-0.116-0.001-0.209-0.045-0.282-0.118
					c-0.073-0.074-0.115-0.174-0.115-0.277c0-0.032,0.004-0.065,0.013-0.101l1.297-5.005c0.045-0.174,0.204-0.297,0.384-0.297
					h17.033c0.181,0,0.339,0.123,0.384,0.297l1.298,5.004c0.009,0.035,0.013,0.069,0.013,0.102c0,0.104-0.042,0.203-0.115,0.277
					c-0.072,0.073-0.166,0.117-0.281,0.118v0.958c0.379,0,0.725-0.158,0.965-0.404c0.242-0.246,0.389-0.584,0.39-0.949
					c0-0.113-0.015-0.228-0.044-0.342l-1.297-5.004c-0.155-0.598-0.694-1.014-1.312-1.014H32.983c-0.617,0-1.156,0.416-1.311,1.014
					l-1.297,5.004l0,0c-0.03,0.113-0.044,0.229-0.044,0.342c0,0.365,0.147,0.703,0.389,0.949c0.241,0.246,0.586,0.404,0.966,0.404
					h19.628V59.55"/>
				<path id="Fill-11" fill="#FB2926" d="M42.347,2.584c0,0.468-0.379,0.847-0.847,0.847s-0.847-0.379-0.847-0.847
					s0.379-0.847,0.847-0.847S42.347,2.117,42.347,2.584"/>
				<path id="Fill-12" fill="#FFFFFF" d="M63.573,38.022H19.427c-0.243,0-0.439-0.196-0.439-0.438V8.397
					c0-0.242,0.196-0.438,0.439-0.438h44.146c0.242,0,0.438,0.196,0.438,0.438v29.187C64.012,37.826,63.815,38.022,63.573,38.022"/>
				<path id="Fill-13" fill="#6F1211" d="M63.573,38.022v-0.479H19.427v0.04h0.04l-0.04-0.04v0.04h0.04V8.397h-0.04v0.041
					l0.04-0.041h-0.04v0.041h44.146V8.397h-0.04l0.04,0.041V8.397h-0.04v29.187h0.04v-0.04l-0.04,0.04h0.04v-0.04v0.958
					c0.507-0.001,0.917-0.411,0.917-0.918V8.397c0-0.507-0.41-0.917-0.917-0.917H19.427c-0.507,0-0.917,0.411-0.917,0.917v29.187
					c0,0.507,0.41,0.917,0.917,0.918h44.146V38.022"/>
				<path id="Fill-14" fill="#6F1211" d="M64.012,11.812v-0.479H19.467V8.397h-0.04v0.041l0.04-0.041h-0.04v0.041h44.146V8.397
					h-0.04l0.04,0.041V8.397h-0.04v3.416H64.012v-0.479V11.812h0.479V8.397c0-0.507-0.41-0.917-0.917-0.917H19.427
					c-0.507,0-0.917,0.411-0.917,0.917v3.895h45.98v-0.479H64.012"/>
				<path id="Fill-15" fill="#264A6F" d="M25.124,9.525c-0.234,0-0.425,0.19-0.425,0.424c0,0.234,0.19,0.424,0.425,0.424
					c0.234,0,0.424-0.19,0.424-0.424C25.548,9.715,25.358,9.525,25.124,9.525L25.124,9.525z M23.352,9.525
					c-0.235,0-0.425,0.19-0.425,0.424c0,0.234,0.19,0.424,0.425,0.424c0.234,0,0.424-0.19,0.424-0.424
					C23.776,9.715,23.586,9.525,23.352,9.525L23.352,9.525z M22.004,9.949c0,0.234-0.19,0.424-0.424,0.424s-0.424-0.19-0.424-0.424
					c0-0.234,0.19-0.424,0.424-0.424S22.004,9.715,22.004,9.949L22.004,9.949z"/>
				<path id="Fill-16" fill="#EFC43B" d="M48.646,24.742c0,3.946-3.198,7.146-7.145,7.146c-3.946,0-7.146-3.199-7.146-7.146
					s3.2-7.146,7.146-7.146C45.447,17.596,48.646,20.795,48.646,24.742"/>
				<path id="Fill-17" fill="#6F1211" d="M48.646,24.742h-0.479c-0.001,1.843-0.745,3.506-1.952,4.714
					c-1.209,1.208-2.872,1.953-4.714,1.953c-1.843,0-3.506-0.746-4.714-1.953c-1.207-1.208-1.952-2.871-1.953-4.714
					c0-1.842,0.746-3.506,1.953-4.714c1.208-1.207,2.872-1.952,4.714-1.953c1.842,0,3.505,0.746,4.714,1.953
					c1.207,1.208,1.951,2.872,1.952,4.714h0.958c-0.001-4.211-3.414-7.624-7.625-7.625c-4.211,0-7.625,3.414-7.625,7.625
					s3.413,7.624,7.625,7.625c4.21,0,7.624-3.414,7.625-7.625H48.646"/>
				<path id="Fill-18" fill="#6F1211" d="M38.589,24.719l2.236,2.236l3.739-3.738l-0.678-0.677l-3.061,3.061l-1.559-1.559
					L38.589,24.719"/>
			</g>
		</g>
	</g>
</g>
</svg>
