<?xml version="1.0" encoding="UTF-8" standalone="no"?>
<svg width="139px" height="139px" viewBox="0 0 139 139" version="1.1" xmlns="http://www.w3.org/2000/svg" xmlns:xlink="http://www.w3.org/1999/xlink" xmlns:sketch="http://www.bohemiancoding.com/sketch/ns">
    <!-- Generator: Sketch 3.3.2 (12043) - http://www.bohemiancoding.com/sketch -->
    <title>helpdesk</title>
    <desc>Created with Sketch.</desc>
    <defs></defs>
    <g id="Page-1" stroke="none" stroke-width="1" fill="none" fill-rule="evenodd" sketch:type="MSPage">
        <g id="Artboard" sketch:type="MSArtboardGroup" transform="translate(-451.000000, -147.000000)">
            <g id="helpdesk" sketch:type="MSLayerGroup" transform="translate(451.000000, 147.000000)">
                <path d="M69.3194805,0 C31.0356312,0 0,31.0356312 0,69.3194805 C0,107.603871 31.0356312,138.638961 69.3194805,138.638961 C107.60333,138.638961 138.638961,107.603871 138.638961,69.3194805 C138.638961,31.0356312 107.60333,0 69.3194805,0 L69.3194805,0 Z M69.3194805,1.62467532 C87.4015753,1.62467532 104.401095,8.66601818 117.186748,21.452213 C129.972943,34.2378662 137.014286,51.2373857 137.014286,69.3194805 C137.014286,87.4015753 129.972943,104.401095 117.186748,117.186748 C104.401095,129.972943 87.4015753,137.014286 69.3194805,137.014286 C51.2373857,137.014286 34.2378662,129.972943 21.452213,117.186748 C8.66601818,104.401095 1.62467532,87.4015753 1.62467532,69.3194805 C1.62467532,51.2373857 8.66601818,34.2378662 21.452213,21.452213 C34.2378662,8.66601818 51.2373857,1.62467532 69.3194805,1.62467532 L69.3194805,1.62467532 Z" id="Fill-2-Copy-2" fill="#264A6F" sketch:type="MSShapeGroup"></path>
                <g id="Illustration-04" transform="translate(28.000000, 35.000000)" sketch:type="MSShapeGroup">
                    <path d="M74.7517154,45.6666 L8.24828462,45.6666 C7.54278462,45.6666 6.97104231,45.0948577 6.97104231,44.3896769 L6.97104231,3.16389615 C6.97104231,1.75353462 8.11452692,0.61005 9.52520769,0.61005 L73.4747923,0.61005 C74.8854731,0.61005 76.0286385,1.75353462 76.0286385,3.16389615 L76.0286385,44.3896769 C76.0286385,45.0948577 75.4568962,45.6666 74.7517154,45.6666" id="Fill-1" fill="#EAE8E5"></path>
                    <path d="M74.7517154,45.6666 L74.7517154,45.1877538 L8.24828462,45.1877538 C7.80742692,45.1867962 7.45084615,44.8302154 7.44988846,44.3896769 L7.44988846,3.16389615 C7.45020769,2.58928077 7.68165,2.07372308 8.05770385,1.69671154 C8.43471538,1.32033846 8.95059231,1.08921538 9.52520769,1.08889615 L73.4747923,1.08889615 C74.0494077,1.08921538 74.5649654,1.32033846 74.9419769,1.69671154 C75.31835,2.07372308 75.5494731,2.58928077 75.5497923,3.16389615 L75.5497923,44.3896769 C75.5491538,44.8302154 75.1922538,45.1867962 74.7517154,45.1877538 L74.7517154,46.1454462 C75.7215385,46.1451269 76.5071654,45.3595 76.5074846,44.3896769 L76.5074846,3.16389615 C76.5071654,1.48889231 75.1501154,0.131523077 73.4747923,0.131203846 L9.52520769,0.131203846 C7.84988462,0.131523077 6.49283462,1.48889231 6.49219615,3.16389615 L6.49219615,44.3896769 C6.49283462,45.3595 7.27814231,46.1451269 8.24828462,46.1454462 L74.7517154,46.1454462 L74.7517154,45.6666" id="Fill-2" fill="#264A6F"></path>
                    <path d="M10.8889615,4.72653077 L72.1110385,4.72653077 L72.1110385,41.42945 L10.8889615,41.42945 L10.8889615,4.72653077 Z" id="Fill-3" fill="#5BA3CC"></path>
                    <path d="M10.8889615,41.42945 L11.3678077,41.42945 L11.3678077,5.20537692 L71.6325115,5.20537692 L71.6325115,40.9506038 L10.8889615,40.9506038 L10.8889615,41.42945 L11.3678077,41.42945 L10.8889615,41.42945 L10.8889615,41.9082962 L72.5902038,41.9082962 L72.5902038,4.24768462 L10.4101154,4.24768462 L10.4101154,41.9082962 L10.8889615,41.9082962 L10.8889615,41.42945" id="Fill-4" fill="#264A6F"></path>
                    <path d="M76.5333423,47.10665 C76.2323077,46.1971615 75.3821962,45.5836 74.4245038,45.5836 L8.57549615,45.5836 C7.61780385,45.5836 6.76769231,46.1971615 6.46665769,47.10665 L0.728484615,62.5018731 L82.2715154,62.5018731 L76.5333423,47.10665" id="Fill-5" fill="#EAE8E5"></path>
                    <path d="M76.5333423,47.10665 L76.9879269,46.9559731 C76.6217692,45.8507962 75.5887385,45.1047538 74.4245038,45.1047538 L8.57549615,45.1047538 C7.41126154,45.1047538 6.37823077,45.8507962 6.01207308,46.9559731 L6.46665769,47.10665 L6.01781923,46.9393731 L0.0389461538,62.9807192 L82.9607346,62.9807192 L76.9818615,46.9393731 L76.5333423,47.10665 L76.9879269,46.9559731 L76.5333423,47.10665 L76.0845038,47.2736077 L81.5819769,62.0230269 L1.41802308,62.0230269 L6.91836923,47.2659462 L6.92124231,47.2570077 C7.15747308,46.5438462 7.82434615,46.0621269 8.57549615,46.0624462 L74.4245038,46.0624462 C75.1756538,46.0621269 75.8425269,46.5438462 76.0787577,47.2570077 L76.0813115,47.2649885 L76.0845038,47.2736077 L76.5333423,47.10665" id="Fill-6" fill="#264A6F"></path>
                    <path d="M0.728484615,62.5018731 C0.353069231,63.6351423 1.19711538,64.8038462 2.39103846,64.8038462 L80.6089615,64.8038462 C81.8028846,64.8038462 82.6469308,63.6351423 82.2715154,62.5018731 L0.728484615,62.5018731" id="Fill-7" fill="#EAE8E5"></path>
                    <path d="M0.728484615,62.5018731 L0.274219231,62.3511962 C0.196646154,62.5848731 0.159615385,62.8227 0.159615385,63.0554192 C0.159934615,63.6507846 0.399996154,64.2059269 0.797438462,64.6132654 C1.19424231,65.0209231 1.75928077,65.2833308 2.39103846,65.2826923 L80.6089615,65.2826923 C81.2407192,65.2833308 81.8057577,65.0209231 82.2022423,64.6132654 C82.6000038,64.2059269 82.8400654,63.6511038 82.8403846,63.0554192 C82.8403846,62.8230192 82.8033538,62.5851923 82.7257808,62.3515154 L82.6172423,62.0230269 L0.382757692,62.0230269 L0.274219231,62.3511962 L0.728484615,62.5018731 L0.728484615,62.9807192 L82.2715154,62.9807192 L82.2715154,62.5018731 L81.8166115,62.6522308 C81.8619423,62.7891808 81.8826923,62.9238962 81.8826923,63.0554192 C81.8830115,63.3906115 81.7460615,63.7098423 81.5171731,63.9441577 C81.2873269,64.1778346 80.9757577,64.3243615 80.6089615,64.325 L2.39103846,64.325 C2.02392308,64.3243615 1.71267308,64.1778346 1.48282692,63.9441577 C1.25361923,63.7098423 1.11698846,63.3906115 1.11730769,63.0554192 C1.11730769,62.9238962 1.13773846,62.7891808 1.18306923,62.65255 L0.728484615,62.5018731 L0.728484615,62.9807192 L0.728484615,62.5018731" id="Fill-8" fill="#264A6F"></path>
                    <path d="M51.3141115,59.5499462 L31.6858885,59.5499462 C31.1131885,59.5499462 30.6946769,59.0091692 30.8383308,58.4546654 L32.1356846,53.4507231 C32.2356038,53.0644538 32.5842038,52.7947038 32.9832423,52.7947038 L50.0167577,52.7947038 C50.4157962,52.7947038 50.7643962,53.0644538 50.8643154,53.4507231 L52.1616692,58.4546654 C52.3053231,59.0091692 51.8868115,59.5499462 51.3141115,59.5499462" id="Fill-9" fill="#FFFFFF"></path>
                    <path d="M51.3141115,59.5499462 L51.3141115,59.0711 L31.6858885,59.0711 C31.5703269,59.0704615 31.4771115,59.0264077 31.4036885,58.9533038 C31.3312231,58.8792423 31.2884462,58.7796423 31.2887654,58.6762115 C31.2887654,58.6433308 31.2925962,58.6101308 31.3018538,58.5753346 L32.5992077,53.5707538 C32.6445385,53.3958154 32.8025577,53.27355 32.9832423,53.27355 L50.0167577,53.27355 C50.1974423,53.27355 50.3554615,53.3958154 50.4007923,53.5707538 L51.6981462,58.5746962 C51.7070846,58.6098115 51.7112346,58.64365 51.7112346,58.6762115 C51.7115538,58.7796423 51.6687769,58.8792423 51.5963115,58.9533038 C51.5228885,59.0264077 51.4296731,59.0704615 51.3141115,59.0711 L51.3141115,60.0287923 C51.6939962,60.0294308 52.0387654,59.8707731 52.2794654,59.6243269 C52.5211231,59.3782 52.6686077,59.0410923 52.6689269,58.6762115 C52.6689269,58.5632038 52.6545615,58.4482808 52.6251923,58.3346346 L51.3278385,53.3303731 C51.1730115,52.7330923 50.6338308,52.3158577 50.0167577,52.3158577 L32.9832423,52.3158577 C32.3661692,52.3158577 31.8269885,52.7330923 31.6721615,53.3303731 L30.3748077,58.3343154 L30.3748077,58.3339962 C30.3451192,58.4479615 30.3310731,58.5632038 30.3310731,58.6762115 C30.3310731,59.0410923 30.4785577,59.3782 30.7202154,59.6243269 C30.9612346,59.8707731 31.3060038,60.0294308 31.6858885,60.0287923 L51.3141115,60.0287923 L51.3141115,59.5499462" id="Fill-10" fill="#264A6F"></path>
                    <path d="M42.3469192,2.58449231 C42.3469192,3.05216538 41.9676731,3.43109231 41.5,3.43109231 C41.0323269,3.43109231 40.6530808,3.05216538 40.6530808,2.58449231 C40.6530808,2.1165 41.0323269,1.73757308 41.5,1.73757308 C41.9676731,1.73757308 42.3469192,2.1165 42.3469192,2.58449231" id="Fill-11" fill="#5BA3CC"></path>
                    <path d="M63.5732115,38.0226192 L19.4271077,38.0226192 C19.1848115,38.0226192 18.9884846,37.8259731 18.9884846,37.5839962 L18.9884846,8.39704615 C18.9884846,8.15475 19.1848115,7.95842308 19.4271077,7.95842308 L63.5732115,7.95842308 C63.8155077,7.95842308 64.0118346,8.15475 64.0118346,8.39704615 L64.0118346,37.5839962 C64.0118346,37.8259731 63.8155077,38.0226192 63.5732115,38.0226192" id="Fill-12" fill="#FFFFFF"></path>
                    <path d="M63.5732115,38.0226192 L63.5732115,37.5437731 L19.4271077,37.5437731 L19.4271077,37.5839962 L19.4673308,37.5839962 L19.4271077,37.5437731 L19.4271077,37.5839962 L19.4673308,37.5839962 L19.4673308,8.39704615 L19.4271077,8.39704615 L19.4271077,8.43726923 L19.4673308,8.39704615 L19.4271077,8.39704615 L19.4271077,8.43726923 L63.5732115,8.43726923 L63.5732115,8.39704615 L63.5329885,8.39704615 L63.5732115,8.43726923 L63.5732115,8.39704615 L63.5329885,8.39704615 L63.5329885,37.5839962 L63.5732115,37.5839962 L63.5732115,37.5437731 L63.5329885,37.5839962 L63.5732115,37.5839962 L63.5732115,37.5437731 L63.5732115,38.5014654 C64.08015,38.5011462 64.4903615,38.0909346 64.4906808,37.5839962 L64.4906808,8.39704615 C64.4903615,7.89010769 64.08015,7.47989615 63.5732115,7.47957692 L19.4271077,7.47957692 C18.9201692,7.47989615 18.5099577,7.89010769 18.5096385,8.39704615 L18.5096385,37.5839962 C18.5099577,38.0909346 18.9201692,38.5011462 19.4271077,38.5014654 L63.5732115,38.5014654 L63.5732115,38.0226192" id="Fill-13" fill="#264A6F"></path>
                    <path d="M64.0118346,11.8124962 L64.0118346,11.33365 L19.4673308,11.33365 L19.4673308,8.39704615 L19.4271077,8.39704615 L19.4271077,8.43726923 L19.4673308,8.39704615 L19.4271077,8.39704615 L19.4271077,8.43726923 L63.5732115,8.43726923 L63.5732115,8.39704615 L63.5329885,8.39704615 L63.5732115,8.43726923 L63.5732115,8.39704615 L63.5329885,8.39704615 L63.5329885,11.8124962 L64.0118346,11.8124962 L64.0118346,11.33365 L64.0118346,11.8124962 L64.4906808,11.8124962 L64.4906808,8.39704615 C64.4903615,7.89010769 64.08015,7.47989615 63.5732115,7.47957692 L19.4271077,7.47957692 C18.9201692,7.47989615 18.5099577,7.89010769 18.5096385,8.39704615 L18.5096385,12.2913423 L64.4906808,12.2913423 L64.4906808,11.8124962 L64.0118346,11.8124962" id="Fill-14" fill="#264A6F"></path>
                    <path d="M25.1237808,9.52488846 C24.8894654,9.52488846 24.6992038,9.71515 24.6992038,9.94946538 C24.6992038,10.1837808 24.8894654,10.3737231 25.1237808,10.3737231 C25.3580962,10.3737231 25.5480385,10.1837808 25.5480385,9.94946538 C25.5480385,9.71515 25.3580962,9.52488846 25.1237808,9.52488846 L25.1237808,9.52488846 Z M23.35205,9.52488846 C23.1174154,9.52488846 22.9274731,9.71515 22.9274731,9.94946538 C22.9274731,10.1837808 23.1174154,10.3737231 23.35205,10.3737231 C23.5863654,10.3737231 23.7763077,10.1837808 23.7763077,9.94946538 C23.7763077,9.71515 23.5863654,9.52488846 23.35205,9.52488846 L23.35205,9.52488846 Z M22.0045769,9.94946538 C22.0045769,10.1837808 21.8146346,10.3737231 21.5803192,10.3737231 C21.3456846,10.3737231 21.1557423,10.1837808 21.1557423,9.94946538 C21.1557423,9.71515 21.3456846,9.52488846 21.5803192,9.52488846 C21.8146346,9.52488846 22.0045769,9.71515 22.0045769,9.94946538 L22.0045769,9.94946538 Z" id="Fill-15" fill="#264A6F"></path>
                    <path d="M48.6456615,24.7416615 C48.6456615,28.6879923 45.44665,31.8873231 41.5003192,31.8873231 C37.5539885,31.8873231 34.3546577,28.6879923 34.3546577,24.7416615 C34.3546577,20.7953308 37.5539885,17.596 41.5003192,17.596 C45.44665,17.596 48.6456615,20.7953308 48.6456615,24.7416615" id="Fill-16" fill="#62A145"></path>
                    <path d="M48.6456615,24.7416615 L48.1668154,24.7416615 C48.1664962,26.5842615 47.4214115,28.2477731 46.2144,29.4557423 C45.0064308,30.6630731 43.3426,31.4081577 41.5003192,31.4084769 C39.6577192,31.4081577 37.9942077,30.6630731 36.7862385,29.4557423 C35.5789077,28.2477731 34.8338231,26.5842615 34.8335038,24.7416615 C34.8338231,22.8993808 35.5789077,21.23555 36.7862385,20.0275808 C37.9942077,18.8205692 39.6577192,18.0751654 41.5003192,18.0748462 C43.3426,18.0751654 45.0064308,18.8205692 46.2144,20.0275808 C47.4214115,21.23555 48.1664962,22.8990615 48.1668154,24.7416615 L49.1245077,24.7416615 C49.1241885,20.5306885 45.7112923,17.1174731 41.5003192,17.1171538 C37.2890269,17.1174731 33.8761308,20.5306885 33.8758115,24.7416615 C33.8761308,28.9526346 37.2890269,32.36585 41.5003192,32.3661692 C45.7112923,32.36585 49.1241885,28.9526346 49.1245077,24.7416615 L48.6456615,24.7416615" id="Fill-17" fill="#264A6F"></path>
                    <path d="M38.5886154,24.7186769 L40.8248269,26.9552077 L44.5633385,23.2166962 L43.8859308,22.5396077 L40.8248269,25.6007115 L39.2660231,24.0415885 L38.5889346,24.7186769" id="Fill-18" fill="#264A6F"></path>
                </g>
            </g>
        </g>
    </g>
</svg>