<?xml version="1.0" encoding="utf-8"?>
<!-- Generator: Adobe Illustrator 16.0.0, SVG Export Plug-In . SVG Version: 6.00 Build 0)  -->
<!DOCTYPE svg PUBLIC "-//W3C//DTD SVG 1.1//EN" "http://www.w3.org/Graphics/SVG/1.1/DTD/svg11.dtd">
<svg version="1.1" id="Layer_1" xmlns="http://www.w3.org/2000/svg" xmlns:xlink="http://www.w3.org/1999/xlink" x="0px" y="0px"
	 width="102.822px" height="102.822px" viewBox="0 0 102.822 102.822" enable-background="new 0 0 102.822 102.822"
	 xml:space="preserve">
<rect x="15.412" y="17.912" fill="none" stroke="#FFFFFF" stroke-linecap="round" stroke-linejoin="round" stroke-miterlimit="10" width="72" height="72"/>
<rect x="15.412" y="15.412" transform="matrix(0.7071 0.7071 -0.7071 0.7071 51.4111 -21.2952)" fill="none" stroke="#FFFFFF" stroke-linecap="round" stroke-linejoin="round" stroke-miterlimit="10" width="71.999" height="71.999"/>
<g>
	
		<line fill="none" stroke="#FFFFFF" stroke-width="2" stroke-linecap="round" stroke-linejoin="round" stroke-miterlimit="10" x1="63.935" y1="39.258" x2="63.935" y2="39.258"/>
	
		<line fill="none" stroke="#FFFFFF" stroke-width="2" stroke-linecap="round" stroke-linejoin="round" stroke-miterlimit="10" x1="61.165" y1="39.258" x2="61.165" y2="39.258"/>
	
		<line fill="none" stroke="#FFFFFF" stroke-width="2" stroke-linecap="round" stroke-linejoin="round" stroke-miterlimit="10" x1="58.396" y1="39.258" x2="58.396" y2="39.258"/>
	<path fill="none" stroke="#FFFFFF" stroke-width="2" stroke-linecap="round" stroke-linejoin="round" stroke-miterlimit="10" d="
		M68.089,35.796v6.923c0,1.529-1.24,2.769-2.77,2.769H36.244c-1.528,0-2.769-1.24-2.769-2.769v-6.923
		c0-1.528,1.24-2.769,2.769-2.769h29.076C66.849,33.028,68.089,34.268,68.089,35.796z"/>
	<path fill="none" stroke="#FFFFFF" stroke-width="2" stroke-linecap="round" stroke-linejoin="round" stroke-miterlimit="10" d="
		M68.089,53.796v-5.538c0-1.529-1.24-2.769-2.77-2.769H36.244c-1.528,0-2.769,1.24-2.769,2.769v6.925
		c0,1.527,1.24,2.766,2.769,2.766h9.692"/>
	<path fill="none" stroke="#FFFFFF" stroke-width="2" stroke-linecap="round" stroke-linejoin="round" stroke-miterlimit="10" d="
		M45.936,57.948h-9.692c-1.528,0-2.769,1.24-2.769,2.771v6.922c0,1.529,1.24,2.77,2.769,2.77h9.692"/>
	
		<line fill="none" stroke="#FFFFFF" stroke-width="2" stroke-linecap="round" stroke-linejoin="round" stroke-miterlimit="10" x1="37.629" y1="37.182" x2="37.629" y2="41.335"/>
	
		<line fill="none" stroke="#FFFFFF" stroke-width="2" stroke-linecap="round" stroke-linejoin="round" stroke-miterlimit="10" x1="37.629" y1="49.642" x2="37.629" y2="53.796"/>
	
		<line fill="none" stroke="#FFFFFF" stroke-width="2" stroke-linecap="round" stroke-linejoin="round" stroke-miterlimit="10" x1="37.629" y1="62.104" x2="37.629" y2="66.257"/>
	<path fill="none" stroke="#FFFFFF" stroke-width="2" stroke-linecap="round" stroke-linejoin="round" stroke-miterlimit="10" d="
		M66.562,62.657c2.373,0,4.297,2.047,4.297,4.568"/>
	<path fill="none" stroke="#FFFFFF" stroke-width="2" stroke-linecap="round" stroke-linejoin="round" stroke-miterlimit="10" d="
		M50.089,67.226c0-2.521,1.924-4.568,4.298-4.568"/>
	<path fill="none" stroke="#FFFFFF" stroke-width="2" stroke-linecap="round" stroke-linejoin="round" stroke-miterlimit="10" d="
		M55.817,59.61c1.104,0,2.061,0.664,2.541,1.635"/>
	<path fill="none" stroke="#FFFFFF" stroke-width="2" stroke-linecap="round" stroke-linejoin="round" stroke-miterlimit="10" d="
		M67.958,62.909c0.021-0.209,0.033-0.418,0.033-0.633c0-3.152-2.402-5.711-5.369-5.711c-2.303,0-4.262,1.543-5.025,3.707
		c-0.486-0.412-1.105-0.662-1.779-0.662c-1.58,0-2.863,1.365-2.863,3.047c0,0.09,0.006,0.174,0.012,0.26
		c-1.673,0.625-2.876,2.314-2.876,4.309c0,2.523,1.924,4.57,4.298,4.57h12.174c2.373,0,4.297-2.047,4.297-4.57
		C70.858,65.224,69.644,63.526,67.958,62.909z"/>
</g>
<g>
</g>
<g>
</g>
<g>
</g>
<g>
</g>
<g>
</g>
<g>
</g>
</svg>
