<?xml version="1.0" encoding="utf-8"?>
<!-- Generator: Adobe Illustrator 18.0.0, SVG Export Plug-In . SVG Version: 6.00 Build 0)  -->
<!DOCTYPE svg PUBLIC "-//W3C//DTD SVG 1.1//EN" "http://www.w3.org/Graphics/SVG/1.1/DTD/svg11.dtd">
<svg version="1.1" id="Layer_1" xmlns="http://www.w3.org/2000/svg" xmlns:xlink="http://www.w3.org/1999/xlink" x="0px" y="0px"
	 viewBox="0 -31.5 1113 623" enable-background="new 0 -31.5 1113 623" xml:space="preserve">
<g>
	<path fill="#205081" d="M545.8,214.8h-45c-4,0-7.3,3.3-7.3,7.3v274.4c0,4,3.3,7.3,7.3,7.3h45c4,0,7.3-3.3,7.3-7.3V222.1
		C553.1,218.1,549.8,214.8,545.8,214.8"/>
	<path fill="#205081" d="M834.8,491.8l-62.9-90.6c27-11.3,40.8-34.8,40.8-69.8v-37c0-55-28.8-79.6-93.1-79.6H607.9
		c-4,0-7.3,3.3-7.3,7.3v274.4c0,4,3.3,7.3,7.3,7.3h45c4,0,7.3-3.3,7.3-7.3v-86h46.1l62.7,90.2c1.5,2,3.6,3.1,6,3.1h54.1l0,0
		c4,0,7.3-3.3,7.3-7.3C836.6,494.7,835.9,493,834.8,491.8 M660.4,268.2h57.2c29.5,0,35.5,11.7,35.5,30.4v28.1
		c0,23.3-8.9,31.2-35.5,31.2h-57.2V268.2"/>
	<path fill="#205081" d="M982.7,219.9c-0.9-3.1-3.8-5.1-6.9-5.1h-68.5c-3.3,0-6,2-6.9,5.1l-86.6,274.4c-0.7,2.2-0.4,4.7,1.1,6.6
		s3.6,2.9,6,2.9h47.2c3.3,0,6.2-2.2,7.1-5.3l59.2-201.7c0,0,1.6-5.1,6.9-5.1c5.5,0,6.7,5.3,6.7,5.3l27.7,95.7h-37.9
		c-3.3,0-6.2,2.2-7.1,5.3l-10.6,37.9c-0.5,2.2-0.2,4.6,1.3,6.4c1.5,1.8,3.6,2.9,5.8,2.9h64l16.6,53.4c0.9,3.1,3.8,5.1,7.1,5.1h47.2
		c2.4,0,4.6-1.1,6-2.9c1.5-1.8,1.8-4.4,1.1-6.6L982.7,219.9"/>
	<path fill="#205081" d="M440.1,214.8h-45.6c-3.8,0-7.1,3.1-7.1,6.9v214.6c0,27-20.6,35.9-34.4,36.6c-1.8,0-4,1.3-5.3,3.1
		c-1.3,1.8-1.5,4-0.9,6l11.1,36.1c0.9,2.9,4,4.9,9.3,4.9c43.7,0,80-34.3,80-80.2V221.7c0-1.8-0.7-3.6-2-4.9
		C443.7,215.5,441.9,214.8,440.1,214.8"/>
	<path fill="#205081" d="M86.8,139.9c-14,0-25.3,11.3-25.3,25.3c0,14,11.3,25.3,25.3,25.3s25.3-11.3,25.3-25.3
		S100.8,139.9,86.8,139.9"/>
	<path fill="#205081" d="M253.5,139.9c-14,0-25.3,11.3-25.3,25.3c0,14,11.3,25.3,25.3,25.3s25.3-11.3,25.3-25.3
		S267.4,139.9,253.5,139.9"/>
	<path fill="#205081" d="M170.1,116.8c-14,0-25.3,11.3-25.3,25.3c0,14,11.3,25.3,25.3,25.3c14,0,25.3-11.3,25.3-25.3
		C195.4,128.1,184.1,116.8,170.1,116.8"/>
	<path fill="#205081" d="M313.5,210.6c-1.5-1.1-3.1-1.6-4.9-1.6c-0.9,0-2,0.2-2.9,0.5c-17.1,6.6-34.6,11.5-50.5,15.3
		c-3.3,0.7-5.8,3.1-6.9,6c-11.7,31.7-41.2,62.1-72.3,93.7c-1.3,1.3-2.9,2.7-5.8,2.7c-2.9,0-4.6-1.5-5.8-2.7
		c-31.2-31.7-60.7-61.8-72.3-93.7c-1.1-2.9-3.6-5.3-6.9-6c-15.9-3.6-33.3-8.9-50.7-15.5c-0.9-0.4-1.8-0.5-2.9-0.5
		c-1.6,0-3.5,0.5-4.7,1.6c-2.2,1.6-3.3,4.4-3.1,7.1c2.6,26.4,13.1,52.3,31.9,79.3c17.7,25.5,40.8,49,63.2,71.8
		c41.2,41.9,80,81.6,83.5,127.5c0.4,4.2,3.8,7.3,8,7.3h48.3c2.2,0,4.2-0.9,5.8-2.6c1.5-1.6,2.4-3.6,2.2-5.8
		c-1.5-30.8-13.1-61.6-35.3-94c-4.7-6.9-9.7-13.5-14.9-20c-2.2-2.7-1.3-6,0.4-7.7c1.6-1.6,3.3-3.3,4.9-4.9
		c22.4-22.8,45.4-46.3,63.2-71.8c18.8-27.1,29.3-52.8,31.9-79.3C316.7,215.2,315.5,212.2,313.5,210.6"/>
	<path fill="#205081" d="M118.1,404.5c-1.1-1.3-2.9-2.4-5.6-2.4c-3.6,0-5.8,2.6-6.6,3.6c-20.4,31-30.8,60.1-32.3,89.5
		c-0.2,2.2,0.7,4.4,2.2,5.8c1.5,1.6,3.6,2.6,5.8,2.6H130c4.2,0,7.7-3.3,8-7.5c1.1-14.2,5.5-28.4,13.5-43.2c2.7-5.1,0.5-10-0.9-12
		C142.4,430.7,132.7,419.8,118.1,404.5"/>
	<path fill="#205081" d="M170.1,234.3c15.1,0,23.9-0.9,27-0.9c3.8,0,7.3,3.1,7.3,7.3c0,1.3-0.4,2.2-0.5,2.9
		c-2,5.5-11.1,24.8-28.2,41.4c-1.8,1.8-4,2.2-5.6,2.2l0,0c-1.5,0-3.6-0.4-5.6-2.2c-17.1-16.6-26.2-35.9-28.2-41.4
		c-0.4-0.7-0.5-1.6-0.5-2.9c0-4.4,3.6-7.3,7.3-7.3C146,233.4,154.9,234.3,170.1,234.3L170.1,234.3"/>
</g>
</svg>
