<?xml version="1.0" encoding="utf-8"?>
<!-- Generator: Adobe Illustrator 16.0.0, SVG Export Plug-In . SVG Version: 6.00 Build 0)  -->
<!DOCTYPE svg PUBLIC "-//W3C//DTD SVG 1.1//EN" "http://www.w3.org/Graphics/SVG/1.1/DTD/svg11.dtd">
<svg version="1.1" id="Layer_1" xmlns="http://www.w3.org/2000/svg" xmlns:xlink="http://www.w3.org/1999/xlink" x="0px" y="0px"
	 width="300px" height="150px" viewBox="0 0 300 150" enable-background="new 0 0 300 150" xml:space="preserve">
<path fill="#FFFFFF" d="M82.318,124.846"/>
<path fill="#BE1E2D" d="M112.85,76.733c-0.5-5.019-1.578-9.473-7.307-16.251c-6.732-7.968-19.21-7.413-21.681-7.352
	s-11.613,2.965-16.678,10.007s-5.066,15.009-5.066,15.009s-0.741,5.251,3.892,13.961c4.633,8.709,16.245,11.179,16.245,11.179
	l0.063-0.739c0,0-9.762-1.605-14.826-12.971c-5.064-11.366,0.37-22.236,5.312-26.685c4.941-4.448,9.76-6.796,18.16-6.302
	c8.4,0.495,14.885,5.87,17.788,10.503s4.139,7.535,3.582,16.554c0,0,0.197-1.173,0.386-2.314
	C112.895,80.272,112.929,77.537,112.85,76.733z"/>
<path fill-rule="evenodd" clip-rule="evenodd" fill="#BE1E2D" d="M84.285,13.66c3.156,0.704,6.392,1.161,9.454,2.153
	c21.684,7.029,34.847,21.753,39.265,44.131c0.692,3.516,0.725,7.161,1.086,11.002c4.743,0,9.683,0,14.781,0
	c0.074,1.365,0.139,2.51,0.197,3.554c3.045-1.067,5.971-2.465,9.049-3.076c4.1-0.813,8.32-1.399,12.492-1.418
	c28.338-0.12,56.682-0.064,85.023-0.066c0.578,0,1.158,0,1.865,0c0,5.295,0,10.416,0,15.768c-0.949,0-1.826,0-2.703,0
	c-5.809,0-11.619,0.043-17.432-0.029c-1.469-0.021-1.91,0.411-1.904,1.899c0.049,14.705,0.029,29.407,0.029,44.114
	c0,0.693,0,1.393,0,2.215c-7.266,0-14.336,0-21.594,0c0-16.047,0-31.966,0-48.135c-0.875,0-1.564,0-2.254,0
	c-13.221-0.001-26.443,0.086-39.664-0.042c-5.654-0.056-10.334,1.725-13.867,6.157c-5.715,7.172-4.6,20.129,2.127,25.396
	c2.607,2.044,5.617,3.106,8.889,3.133c10.791,0.084,21.578,0.061,32.371,0.075c0.701,0.003,1.398,0.003,2.217,0.003
	c0,5.292,0,10.423,0,15.841c-0.672,0-1.354,0-2.037,0c-8.717,0-17.434,0.012-26.15-0.003c-9.018-0.015-18.037-0.063-26.438-4.842
	c-0.041,0.785-0.082,1.341-0.098,1.897c-0.016,0.524-0.004,1.05-0.004,1.82c-1.059,0-1.991,0-2.921,0
	c-5.274,0-10.554-0.034-15.829,0.029c-1.21,0.015-1.929-0.399-2.638-1.354c-7.898-10.652-15.845-21.27-23.781-31.896
	c-0.414-0.553-0.865-1.08-1.646-2.05c0,12.024,0,23.528,0,35.153c-6.847,0-13.454,0-20.272,0c0-3.355,0-6.639,0-9.972
	c-3.143-0.142-6.083-0.202-9.013-0.423c-24.008-1.807-45.005-20.723-49.469-44.533C18.084,51.726,34.126,24.657,61.498,16.08
	c3.476-1.089,7.123-1.626,10.689-2.42C76.221,13.66,80.253,13.66,84.285,13.66z M81.853,124.119c0-3.304,0.041-6.501-0.053-9.688
	c-0.011-0.392-0.688-0.994-1.147-1.096c-1.146-0.254-2.351-0.234-3.521-0.396c-21.267-2.981-36.238-22.683-33.427-43.975
	c2.396-18.158,16.693-32.257,34.713-34.232c16.006-1.754,31.521,6.374,39.15,20.565c3.447,6.411,4.947,13.278,4.527,20.576
	c-0.666-11.367-5.101-20.89-14.052-28.011c-8.96-7.129-19.205-9.417-30.424-7.199c-18.716,3.699-31.761,22.787-28.523,41.587
	c3.5,20.32,21.372,30.333,32.818,30.289c0-13.771,0-27.546,0-41.491c0.783,0,1.364,0,1.947,0c5.515,0,11.03,0.03,16.544-0.024
	c1.184-0.011,1.92,0.344,2.645,1.322c8.131,10.997,16.32,21.954,24.485,32.927c0.223,0.301,0.364,0.662,0.544,0.996
	c0.174-0.111,0.348-0.218,0.524-0.328c0-0.637,0-1.273,0-1.914c0-10.02-0.006-20.041,0.003-30.062c0-3.434-0.174-2.864,2.794-2.921
	c0.51-0.01,1.02-0.081,1.515-0.122c-0.035-23.099-19.38-49.028-50.5-49.651c-29.753-0.596-54.552,24.396-52.176,55.506
	C32.441,105.623,57.285,124.725,81.853,124.119z"/>
<ellipse fill="none" stroke="#BE1E2D" stroke-width="0.25" stroke-miterlimit="10" cx="87.483" cy="78.477" rx="25.206" ry="25.492"/>
</svg>
