<?xml version="1.0" encoding="utf-8"?>
<!-- Generator: Adobe Illustrator 16.0.0, SVG Export Plug-In . SVG Version: 6.00 Build 0)  -->
<!DOCTYPE svg PUBLIC "-//W3C//DTD SVG 1.1//EN" "http://www.w3.org/Graphics/SVG/1.1/DTD/svg11.dtd">
<svg version="1.1" id="Layer_1" xmlns="http://www.w3.org/2000/svg" xmlns:xlink="http://www.w3.org/1999/xlink" x="0px" y="0px"
	 width="235.099px" height="122.68px" viewBox="22.398 13.66 235.099 122.68" enable-background="new 22.398 13.66 235.099 122.68"
	 xml:space="preserve">
<ellipse fill="none" stroke="#919191" stroke-width="0.25" stroke-miterlimit="10" cx="87.483" cy="78.477" rx="25.206" ry="25.492"/>
<path fill="#FFFFFF" d="M82.318,124.846"/>
<path fill="#919191" d="M112.85,76.732c-0.5-5.019-1.578-9.473-7.307-16.25c-3.635-4.301-9-6.329-13.505-7.082
	c-3.839-0.641-7.039-0.298-8.176-0.271c-2.471,0.061-11.613,2.965-16.678,10.007s-5.066,15.009-5.066,15.009
	s-0.741,5.25,3.892,13.961c4.633,8.709,16.157,11.35,16.157,11.35l0.151-0.91c0,0-9.762-1.605-14.826-12.971
	c-5.064-11.366,0.37-22.236,5.312-26.685c4.941-4.448,9.76-6.796,18.16-6.302c8.4,0.495,14.885,5.87,17.788,10.503
	c2.903,4.633,4.139,7.535,3.582,16.555c0,0,0.197-1.174,0.386-2.314C112.895,80.271,112.929,77.537,112.85,76.732z"/>
<path fill="#BE1E2D" d="M133.402,70.922c-0.16,0-0.33,0-0.487,0C132.885,70.98,133.228,71.088,133.402,70.922z"/>
<path fill="#4F4C4C" d="M81.914,112.539c-11.458-0.192-29.359-10.21-32.818-30.289c-3.238-18.8,9.807-37.888,28.523-41.587
	c11.219-2.218,21.464,0.07,30.424,7.199c8.951,7.121,13.386,16.644,14.052,28.011c0.42-7.298-1.08-14.165-4.527-20.576
	c-7.629-14.191-23.144-22.319-39.15-20.565c-18.02,1.975-32.317,16.074-34.713,34.232c-2.811,21.292,12.16,40.994,33.427,43.976
	c0.799,0.11,2.042,0.062,3.212,0.041c0.544-0.011,1.61-0.08,1.974,0"/>
<path fill="#BE1E2D" d="M255.632,69.94c-28.341,0.002-56.685-0.054-85.022,0.066c-4.172,0.019-8.393,0.605-12.492,1.418
	c-3.078,0.611-6.004,2.009-9.049,3.076c-0.058-1.044-0.123-2.189-0.197-3.554c-4.929,0-10.797-0.022-15.469-0.023
	c-0.174,0.166-0.517,0.058-0.487,0c-0.495,0.041-1.005,0.112-1.515,0.122c-2.968,0.057-2.794-0.513-2.794,2.921
	c-0.009,10.021-0.003,20.042-0.003,30.062c0,0.641,0,1.277,0,1.914c-0.176,0.109-0.35,0.217-0.524,0.328
	c-0.18-0.334-0.321-0.695-0.544-0.996C119.37,94.3,111.181,83.343,103.05,72.346c-0.725-0.978-1.461-1.333-2.645-1.322
	c-5.514,0.054-11.029,0.024-16.544,0.024c-0.583,0-1.164,0-1.947,0c0,13.945,0,27.72,0,41.491c-0.136,0.001,0.138,0.003,0,0
	c0-0.217-0.061,7.407-0.061,11.58c-0.118,0.003-0.235,0.004-0.353,0.006c0,0.349,0,0.553,0,0.976
	c0.133,0.005,0.265,0.011,0.398,0.017c0,3.333,0,6.617,0,9.972c6.818,0,13.425,0,20.272,0c0-11.625,0-23.129,0-35.153
	c0.781,0.971,1.232,1.498,1.646,2.051c7.936,10.625,15.883,21.244,23.781,31.896c0.709,0.955,1.428,1.369,2.638,1.354
	c5.275-0.063,10.555-0.029,15.829-0.029c0.93,0,1.862,0,2.921,0c0-0.77-0.012-1.296,0.004-1.82c0.016-0.556,0.057-1.111,0.098-1.896
	c8.401,4.779,17.42,4.826,26.438,4.842c8.716,0.016,17.433,0.003,26.149,0.003c0.683,0,1.365,0,2.037,0c0-5.418,0-10.549,0-15.841
	c-0.819,0-1.517,0-2.217-0.003c-10.793-0.015-21.58,0.009-32.371-0.075c-3.272-0.027-6.282-1.089-8.89-3.133
	c-6.727-5.268-7.842-18.225-2.127-25.396c3.533-4.432,8.213-6.213,13.867-6.156c13.221,0.127,26.443,0.041,39.664,0.041
	c0.69,0,1.379,0,2.254,0c0,16.17,0,32.088,0,48.136c7.258,0,14.328,0,21.594,0c0-0.822,0-1.522,0-2.216
	c0-14.707,0.021-29.408-0.028-44.113c-0.006-1.488,0.435-1.92,1.903-1.898c5.813,0.071,11.623,0.028,17.433,0.028
	c0.877,0,1.754,0,2.703,0c0-5.353,0-10.473,0-15.768C256.79,69.94,256.21,69.94,255.632,69.94z"/>
<path d="M133.004,59.944c-4.418-22.378-17.581-37.102-39.265-44.131c-3.062-0.992-6.298-1.449-9.454-2.153
	c-4.032,0-8.064,0-12.098,0c-3.566,0.794-7.213,1.331-10.689,2.42c-27.372,8.577-43.414,35.646-38.082,64.081
	c4.464,23.81,25.461,42.726,49.469,44.532c2.688,0.203,5.384,0.271,8.237,0.391c0.125,0.005,0.65,0.027,0.776,0.033
	c0-0.423-0.045-0.649-0.045-0.998c-0.125,0.002-0.603,0.011-0.728,0.012c-24.328,0.216-48.706-18.793-50.887-47.354
	c-2.376-31.11,22.423-56.103,52.176-55.506c30.351,0.608,49.54,27.003,50.5,49.651c0.157,0,0.327,0,0.487,0
	c0.059-0.057,0.099-0.144,0.098-0.276c-0.006-0.777,0.066-2.021,0.062-2.146C133.423,64.985,133.643,63.19,133.004,59.944z"/>
</svg>
