<?xml version="1.0" encoding="utf-8"?>
<!-- Generator: Adobe Illustrator 16.0.0, SVG Export Plug-In . SVG Version: 6.00 Build 0)  -->
<!DOCTYPE svg PUBLIC "-//W3C//DTD SVG 1.1//EN" "http://www.w3.org/Graphics/SVG/1.1/DTD/svg11.dtd">
<svg version="1.1" id="Layer_1" xmlns="http://www.w3.org/2000/svg" xmlns:xlink="http://www.w3.org/1999/xlink" x="0px" y="0px"
	 width="792px" height="612px" viewBox="0 0 792 612" enable-background="new 0 0 792 612" xml:space="preserve">
<path fill="#FFFFFF" d="M273.801,363.049"/>
<path fill="#6D6E71" d="M326.73,279.641c-0.866-8.702-2.735-16.423-12.666-28.174c-11.673-13.814-33.304-12.852-37.586-12.745
	c-4.283,0.106-20.132,5.14-28.913,17.348c-8.78,12.208-8.783,26.02-8.783,26.02s-1.285,9.103,6.746,24.202
	c8.031,15.098,28.164,19.38,28.164,19.38l0.109-1.282c0,0-16.922-2.783-25.703-22.487c-8.781-19.704,0.642-38.549,9.209-46.26
	s16.92-11.781,31.483-10.924s25.804,10.176,30.838,18.208c5.033,8.031,7.174,13.063,6.21,28.698c0,0,0.341-2.033,0.667-4.012
	C326.809,285.775,326.868,281.034,326.73,279.641z"/>
<path fill-rule="evenodd" clip-rule="evenodd" fill="#6D6E71" d="M277.211,170.294c5.471,1.221,11.081,2.012,16.39,3.733
	c37.59,12.185,60.411,37.712,68.07,76.507c1.2,6.094,1.255,12.415,1.882,19.072c8.222,0,16.786,0,25.625,0
	c0.13,2.367,0.241,4.352,0.341,6.162c5.281-1.85,10.351-4.273,15.687-5.333c7.107-1.411,14.426-2.426,21.658-2.457
	c49.127-0.208,98.264-0.113,147.396-0.117c1.004,0,2.008,0,3.236,0c0,9.181,0,18.059,0,27.335c-1.646,0-3.166,0-4.688,0
	c-10.07,0-20.145,0.075-30.219-0.05c-2.549-0.035-3.312,0.713-3.303,3.293c0.086,25.492,0.051,50.981,0.051,76.477
	c0,1.203,0,2.414,0,3.84c-12.594,0-24.852,0-37.436,0c0-27.819,0-55.417,0-83.446c-1.516,0-2.711,0-3.906,0
	c-22.919-0.002-45.844,0.148-68.764-0.073c-9.803-0.098-17.914,2.989-24.038,10.674c-9.909,12.433-7.976,34.896,3.685,44.026
	c4.522,3.544,9.738,5.387,15.41,5.432c18.707,0.146,37.41,0.105,56.119,0.131c1.215,0.004,2.424,0.004,3.844,0.004
	c0,9.176,0,18.07,0,27.463c-1.164,0-2.348,0-3.533,0c-15.109,0-30.223,0.02-45.332-0.006c-15.635-0.025-31.271-0.109-45.833-8.393
	c-0.07,1.361-0.141,2.324-0.17,3.289c-0.025,0.908-0.005,1.82-0.005,3.156c-1.837,0-3.453,0-5.064,0
	c-9.146,0-18.296-0.061-27.442,0.051c-2.098,0.025-3.343-0.693-4.573-2.35c-13.693-18.467-27.469-36.873-41.227-55.295
	c-0.718-0.959-1.501-1.873-2.854-3.555c0,20.847,0,40.789,0,60.943c-11.87,0-23.325,0-35.145,0c0-5.818,0-11.51,0-17.287
	c-5.447-0.246-10.546-0.352-15.625-0.734c-41.621-3.131-78.022-35.924-85.761-77.203c-9.244-49.297,18.566-96.225,66.019-111.094
	c6.025-1.888,12.348-2.82,18.532-4.195C263.23,170.294,270.22,170.294,277.211,170.294z M272.993,361.789
	c0-5.728,0.071-11.27-0.09-16.795c-0.02-0.678-1.195-1.723-1.989-1.898c-1.988-0.441-4.076-0.406-6.105-0.688
	c-36.869-5.17-62.823-39.323-57.95-76.235c4.155-31.48,28.94-55.922,60.179-59.347c27.748-3.041,54.646,11.05,67.872,35.652
	c5.976,11.115,8.576,23.021,7.848,35.671c-1.155-19.707-8.842-36.213-24.36-48.559c-15.533-12.359-33.295-16.325-52.744-12.481
	c-32.446,6.413-55.061,39.504-49.448,72.096c6.067,35.228,37.05,52.585,56.895,52.51c0-23.874,0-47.754,0-71.931
	c1.356,0,2.365,0,3.375,0c9.56,0,19.121,0.053,28.68-0.042c2.053-0.02,3.329,0.595,4.585,2.292
	c14.096,19.064,28.292,38.059,42.448,57.081c0.387,0.521,0.632,1.148,0.944,1.727c0.301-0.191,0.603-0.377,0.908-0.568
	c0-1.104,0-2.208,0-3.317c0-17.37-0.01-34.743,0.005-52.117c0-5.953-0.301-4.965,4.844-5.064c0.883-0.017,1.767-0.139,2.625-0.211
	c-0.061-40.045-33.598-84.997-87.547-86.076c-51.58-1.033-94.573,42.293-90.454,96.227
	C187.334,329.725,230.403,362.838,272.993,361.789z"/>
<ellipse fill="none" stroke="#6D6E71" stroke-miterlimit="10" cx="282.754" cy="282.663" rx="43.697" ry="44.193"/>
</svg>
