<?xml version="1.0" encoding="utf-8"?>
<!-- Generator: Adobe Illustrator 16.0.0, SVG Export Plug-In . SVG Version: 6.00 Build 0)  -->
<!DOCTYPE svg PUBLIC "-//W3C//DTD SVG 1.1//EN" "http://www.w3.org/Graphics/SVG/1.1/DTD/svg11.dtd">
<svg version="1.1" id="Layer_1" xmlns="http://www.w3.org/2000/svg" xmlns:xlink="http://www.w3.org/1999/xlink" x="0px" y="0px"
	 width="102.822px" height="102.822px" viewBox="0 0 102.822 102.822" enable-background="new 0 0 102.822 102.822"
	 xml:space="preserve">
<g>
	<path fill="none" stroke="#FFFFFF" stroke-width="2" stroke-linecap="round" stroke-linejoin="round" stroke-miterlimit="10" d="
		M64.501,43.896c4.98,0,9.02,4.038,9.02,9.02"/>
	<path fill="none" stroke="#FFFFFF" stroke-width="2" stroke-linecap="round" stroke-linejoin="round" stroke-miterlimit="10" d="
		M29.927,52.915c0-4.982,4.038-9.02,9.019-9.02"/>
	<path fill="none" stroke="#FFFFFF" stroke-width="2" stroke-linecap="round" stroke-linejoin="round" stroke-miterlimit="10" d="
		M47.283,41.109"/>
	<path fill="none" stroke="#FFFFFF" stroke-width="2" stroke-linecap="round" stroke-linejoin="round" stroke-miterlimit="10" d="
		M41.953,37.882"/>
	<path fill="none" stroke="#FFFFFF" stroke-width="2" stroke-linecap="round" stroke-linejoin="round" stroke-miterlimit="10" d="
		M67.435,44.393c0.045-0.411,0.072-0.827,0.072-1.25c0-6.226-5.047-11.274-11.273-11.274c-4.833,0-8.942,3.046-10.546,7.318
		c-1.026-0.815-2.322-1.306-3.734-1.306c-3.321,0-6.013,2.692-6.013,6.013c0,0.174,0.012,0.345,0.026,0.514
		c-3.515,1.232-6.039,4.569-6.039,8.505c0,4.98,4.038,9.019,9.019,9.019h1.503v-4.51h22.547v4.51h1.504
		c4.98,0,9.02-4.038,9.02-9.019C73.521,48.962,70.974,45.611,67.435,44.393z"/>
	
		<rect x="40.45" y="57.424" fill="none" stroke="#FFFFFF" stroke-width="2" stroke-linecap="round" stroke-linejoin="round" stroke-miterlimit="10" width="22.547" height="13.529"/>
	
		<line fill="none" stroke="#FFFFFF" stroke-width="2" stroke-linecap="round" stroke-linejoin="round" stroke-miterlimit="10" x1="37.443" y1="57.424" x2="66.005" y2="57.424"/>
	
		<line fill="none" stroke="#FFFFFF" stroke-width="2" stroke-linecap="round" stroke-linejoin="round" stroke-miterlimit="10" x1="44.959" y1="66.443" x2="58.488" y2="66.443"/>
	
		<line fill="none" stroke="#FFFFFF" stroke-width="2" stroke-linecap="round" stroke-linejoin="round" stroke-miterlimit="10" x1="44.959" y1="61.934" x2="58.488" y2="61.934"/>
</g>
<rect x="15.412" y="17.412" fill="none" stroke="#FFFFFF" stroke-linecap="round" stroke-linejoin="round" stroke-miterlimit="10" width="72" height="72"/>
<rect x="15.412" y="15.412" transform="matrix(0.7071 0.7071 -0.7071 0.7071 51.4111 -21.2952)" fill="none" stroke="#FFFFFF" stroke-linecap="round" stroke-linejoin="round" stroke-miterlimit="10" width="71.999" height="71.999"/>
<g>
</g>
<g>
</g>
<g>
</g>
<g>
</g>
<g>
</g>
<g>
</g>
</svg>
